<svg width="90" height="69" viewBox="0 0 90 69" fill="none" xmlns="http://www.w3.org/2000/svg">
<path d="M71.9021 1.68013L4.90848 20.0764C2.48345 20.7423 1.0574 23.248 1.72331 25.673L12.4104 64.5921C13.0763 67.0171 15.582 68.4432 18.007 67.7773L85.0007 49.381C87.4257 48.7151 88.8517 46.2094 88.1858 43.7844L77.4988 4.8653C76.8329 2.44028 74.3272 1.01423 71.9021 1.68013Z" fill="url(#paint0_linear_80_4038)"/>
<path d="M83.0238 47.3336L18.6609 65.0075C16.8453 65.5061 14.9578 64.4371 14.4576 62.6153L4.49293 26.327C3.99435 24.5114 5.06334 22.6239 6.88516 22.1237L71.248 4.4498C73.0636 3.95123 74.9511 5.02022 75.4514 6.84204L85.416 43.1303C85.9146 44.9459 84.8456 46.8334 83.0238 47.3336ZM7.00387 22.5559C5.4229 22.9901 4.49109 24.6273 4.92522 26.2083L14.8899 62.4966C15.324 64.0775 16.9613 65.0093 18.5422 64.5752L82.9051 46.9014C84.486 46.4672 85.4179 44.83 84.9837 43.249L75.0191 6.96075C74.5849 5.37977 72.9477 4.44797 71.3667 4.8821L7.00387 22.5559Z" fill="url(#paint1_linear_80_4038)"/>
<path d="M27.8241 40.0169L30.8997 34.7226C31.3958 33.8691 31.6552 33.1205 31.4228 32.2744C31.143 31.2554 30.202 30.8032 29.22 31.0728C28.1702 31.3611 27.7298 32.3454 27.8795 33.4466L25.9999 33.6639C25.7208 31.8013 26.8199 30.0716 28.8269 29.5205C30.7229 28.9998 32.7708 29.613 33.3473 31.7127C33.7323 33.1146 33.2159 34.3057 32.4945 35.5L30.1708 39.3725L35.0928 38.0209L35.5592 39.7192L28.2904 41.7152L27.8241 40.0169Z" fill="#CEA666"/>
<path d="M35.7013 33.8027C34.7312 30.2702 35.5137 27.6778 37.9963 26.996C40.4789 26.3143 42.443 28.146 43.4147 31.6846C44.3864 35.2233 43.6208 37.8045 41.1505 38.4828C38.6802 39.1611 36.673 37.3414 35.7013 33.8027ZM41.5187 32.2052C41.0999 30.6798 40.0691 28.0872 38.4202 28.54C36.7713 28.9927 37.1766 31.7505 37.5972 33.2821C38.0178 34.8136 39.0506 37.3659 40.7181 36.908C42.3855 36.4501 41.9393 33.7368 41.5187 32.2052Z" fill="#CEA666"/>
<path d="M45.9498 35.0398L49.0254 29.7456C49.5216 28.8921 49.7809 28.1434 49.5486 27.2974C49.2687 26.2784 48.3277 25.8262 47.3457 26.0958C46.2959 26.3841 45.8555 27.3684 46.0052 28.4696L44.1256 28.6869C43.8465 26.8242 44.9456 25.0946 46.9527 24.5434C48.8486 24.0228 50.8965 24.636 51.473 26.7357C51.858 28.1376 51.3416 29.3287 50.6203 30.523L48.2965 34.3954L53.2185 33.0438L53.6849 34.7421L46.4161 36.7381L45.9498 35.0398Z" fill="#CEA666"/>
<path d="M54.5191 32.2414L56.0293 31.1626C56.5755 31.9424 57.5035 32.2986 58.4731 32.0323C59.5661 31.7322 60.3041 30.7193 59.9395 29.3915C59.4783 27.7117 58.0951 27.5602 56.9032 27.8875C56.0695 28.1165 55.0909 28.6641 54.5233 29.1853L53.0687 23.1625L59.2876 21.4548L59.7455 23.1222L55.2867 24.3466L55.8233 26.7363C56.1375 26.5503 56.6798 26.3483 57.0627 26.2432C59.2056 25.6547 61.1724 26.4562 61.7795 28.6671C62.4443 31.088 61.0361 33.0221 58.8561 33.6207C57.0343 34.121 55.483 33.5507 54.5129 32.2431L54.5191 32.2414Z" fill="#CEA666"/>
<path d="M36.0544 44.086L37.2525 43.7571C38.1047 43.523 38.7504 43.6977 38.9607 44.4635C39.171 45.2293 38.6484 45.7447 37.8332 45.9685L37.2094 46.1398L37.6843 47.869L37.1346 48.0199L36.0544 44.086ZM37.669 45.5155C38.2062 45.368 38.5399 45.0838 38.4128 44.6206C38.2856 44.1574 37.8507 44.0975 37.332 44.24L36.7391 44.4028L37.0884 45.675L37.6751 45.5139L37.669 45.5155Z" fill="#CEA666"/>
<path d="M40.3619 47.1472L40.3048 46.6249C40.398 46.6259 40.5143 46.6139 40.6254 46.5834C40.9095 46.5054 41.0126 46.3243 41.0883 45.9714L41.1814 45.5607L38.9184 43.2931L39.5606 43.1168L41.3444 44.9448L41.895 42.4757L42.5064 42.3079L41.641 45.9525C41.5139 46.5054 41.3523 46.9084 40.7965 47.0611C40.6297 47.1069 40.4764 47.129 40.3602 47.141L40.3619 47.1472Z" fill="#CEA666"/>
<path d="M43.0825 42.1565L45.5404 41.4816L45.6709 41.9571L43.7627 42.4811L44.0883 43.6668L44.8293 43.4633C45.6631 43.2344 46.3605 43.4281 46.5758 44.2124C46.7912 44.9967 46.3029 45.516 45.463 45.7466L44.1661 46.1027L43.0858 42.1688L43.0825 42.1565ZM45.2706 45.2881C45.8512 45.1286 46.1472 44.8282 46.02 44.365C45.8928 43.9018 45.4938 43.779 44.9009 43.9418L44.2154 44.13L44.5851 45.4763L45.2706 45.2881Z" fill="#CEA666"/>
<path d="M47.3166 45.2174L47.2567 44.7092C47.3438 44.7118 47.4089 44.7072 47.5077 44.6801C48.1068 44.5156 48.1904 43.8285 47.6782 41.9634L47.4069 40.9753L49.9451 40.2784L51.0254 44.2123L50.4757 44.3632L49.5278 40.911L48.0765 41.3095L48.2545 41.958C48.7819 43.8786 48.7073 44.8886 47.7624 45.1481C47.6389 45.182 47.4486 45.2144 47.3289 45.214L47.3166 45.2174Z" fill="#CEA666"/>
<path d="M50.9131 40.0059L53.4389 39.3123L53.5712 39.794L51.595 40.3367L51.9189 41.5162L53.7777 41.0058L53.9066 41.4751L52.0478 41.9856L52.4073 43.2948L54.4638 42.7301L54.5977 43.218L51.9916 43.9336L50.9114 39.9997L50.9131 40.0059Z" fill="#CEA666"/>
<path d="M54.2356 39.0939L54.7853 38.9429L55.6417 42.0616L55.654 42.0583L56.78 38.3952L57.3852 38.229L58.4655 42.1629L57.9158 42.3138L57.0594 39.1951L57.0471 39.1985L55.9211 42.8616L55.3159 43.0278L54.2356 39.0939ZM54.6412 37.8136L54.9392 37.6654C55.057 37.9252 55.3173 38.0264 55.5952 37.9501C55.8731 37.8738 56.0451 37.6539 56.0138 37.3703L56.3457 37.3456C56.4173 37.824 56.1601 38.1935 55.6908 38.3224C55.2214 38.4513 54.8116 38.2649 54.6289 37.817L54.6412 37.8136Z" fill="#CEA666"/>
<path d="M27.8241 40.0169L30.8997 34.7226C31.3958 33.8691 31.6552 33.1205 31.4228 32.2744C31.143 31.2554 30.202 30.8032 29.22 31.0728C28.1702 31.3611 27.7298 32.3454 27.8795 33.4466L25.9999 33.6639C25.7208 31.8013 26.8199 30.0716 28.8269 29.5205C30.7229 28.9998 32.7708 29.613 33.3473 31.7127C33.7323 33.1146 33.2159 34.3057 32.4945 35.5L30.1708 39.3725L35.0928 38.0209L35.5592 39.7192L28.2904 41.7152L27.8241 40.0169Z" fill="url(#paint2_linear_80_4038)"/>
<path d="M35.7013 33.8027C34.7312 30.2702 35.5137 27.6778 37.9963 26.996C40.4789 26.3143 42.443 28.146 43.4147 31.6846C44.3864 35.2233 43.6208 37.8045 41.1505 38.4828C38.6802 39.1611 36.673 37.3414 35.7013 33.8027ZM41.5187 32.2052C41.0999 30.6798 40.0691 28.0872 38.4202 28.54C36.7713 28.9927 37.1766 31.7505 37.5972 33.2821C38.0178 34.8136 39.0506 37.3659 40.7181 36.908C42.3855 36.4501 41.9393 33.7368 41.5187 32.2052Z" fill="url(#paint3_linear_80_4038)"/>
<path d="M45.9498 35.0398L49.0254 29.7456C49.5216 28.8921 49.7809 28.1434 49.5486 27.2974C49.2687 26.2784 48.3277 25.8262 47.3457 26.0958C46.2959 26.3841 45.8555 27.3684 46.0052 28.4696L44.1256 28.6869C43.8465 26.8242 44.9456 25.0946 46.9527 24.5434C48.8486 24.0228 50.8965 24.636 51.473 26.7357C51.858 28.1376 51.3416 29.3287 50.6203 30.523L48.2965 34.3954L53.2185 33.0438L53.6849 34.7421L46.4161 36.7381L45.9498 35.0398Z" fill="url(#paint4_linear_80_4038)"/>
<path d="M54.5191 32.2414L56.0293 31.1626C56.5755 31.9424 57.5035 32.2986 58.4731 32.0323C59.5661 31.7322 60.3041 30.7193 59.9395 29.3915C59.4783 27.7117 58.0951 27.5602 56.9032 27.8875C56.0695 28.1165 55.0909 28.6641 54.5233 29.1853L53.0687 23.1625L59.2876 21.4548L59.7455 23.1222L55.2867 24.3466L55.8233 26.7363C56.1375 26.5503 56.6798 26.3483 57.0627 26.2432C59.2056 25.6547 61.1724 26.4562 61.7795 28.6671C62.4443 31.088 61.0361 33.0221 58.8561 33.6207C57.0343 34.121 55.483 33.5507 54.5129 32.2431L54.5191 32.2414Z" fill="url(#paint5_linear_80_4038)"/>
<path d="M36.0544 44.086L37.2525 43.7571C38.1047 43.523 38.7504 43.6977 38.9607 44.4635C39.171 45.2293 38.6484 45.7447 37.8332 45.9685L37.2094 46.1398L37.6843 47.869L37.1346 48.0199L36.0544 44.086ZM37.669 45.5155C38.2062 45.368 38.5399 45.0838 38.4128 44.6206C38.2856 44.1574 37.8507 44.0975 37.332 44.24L36.7391 44.4028L37.0884 45.675L37.6751 45.5139L37.669 45.5155Z" fill="url(#paint6_linear_80_4038)"/>
<path d="M40.3619 47.1472L40.3048 46.6249C40.398 46.6259 40.5143 46.6139 40.6254 46.5834C40.9095 46.5054 41.0126 46.3243 41.0883 45.9714L41.1814 45.5607L38.9184 43.2931L39.5606 43.1168L41.3444 44.9448L41.895 42.4757L42.5064 42.3079L41.641 45.9525C41.5139 46.5054 41.3523 46.9084 40.7965 47.0611C40.6297 47.1069 40.4764 47.129 40.3602 47.141L40.3619 47.1472Z" fill="url(#paint7_linear_80_4038)"/>
<path d="M43.0825 42.1565L45.5404 41.4816L45.6709 41.9571L43.7627 42.4811L44.0883 43.6668L44.8293 43.4633C45.6631 43.2344 46.3605 43.4281 46.5758 44.2124C46.7912 44.9967 46.3029 45.516 45.463 45.7466L44.1661 46.1027L43.0858 42.1688L43.0825 42.1565ZM45.2706 45.2881C45.8512 45.1286 46.1472 44.8282 46.02 44.365C45.8928 43.9018 45.4938 43.779 44.9009 43.9418L44.2154 44.13L44.5851 45.4763L45.2706 45.2881Z" fill="url(#paint8_linear_80_4038)"/>
<path d="M47.3166 45.2174L47.2567 44.7092C47.3438 44.7118 47.4089 44.7072 47.5077 44.6801C48.1068 44.5156 48.1904 43.8285 47.6782 41.9634L47.4069 40.9753L49.9451 40.2784L51.0254 44.2123L50.4757 44.3632L49.5278 40.911L48.0765 41.3095L48.2545 41.958C48.7819 43.8786 48.7073 44.8886 47.7624 45.1481C47.6389 45.182 47.4486 45.2144 47.3289 45.214L47.3166 45.2174Z" fill="url(#paint9_linear_80_4038)"/>
<path d="M50.9131 40.0059L53.4389 39.3123L53.5712 39.794L51.595 40.3367L51.9189 41.5162L53.7777 41.0058L53.9066 41.4751L52.0478 41.9856L52.4073 43.2948L54.4638 42.7301L54.5977 43.218L51.9916 43.9336L50.9114 39.9997L50.9131 40.0059Z" fill="url(#paint10_linear_80_4038)"/>
<path d="M54.2356 39.0939L54.7853 38.9429L55.6417 42.0616L55.654 42.0583L56.78 38.3952L57.3852 38.229L58.4655 42.1629L57.9158 42.3138L57.0594 39.1951L57.0471 39.1985L55.9211 42.8616L55.3159 43.0278L54.2356 39.0939ZM54.6412 37.8136L54.9392 37.6654C55.057 37.9252 55.3173 38.0264 55.5952 37.9501C55.8731 37.8738 56.0451 37.6539 56.0138 37.3703L56.3457 37.3456C56.4173 37.824 56.1601 38.1935 55.6908 38.3224C55.2214 38.4513 54.8116 38.2649 54.6289 37.817L54.6412 37.8136Z" fill="url(#paint11_linear_80_4038)"/>
<defs>
<linearGradient id="paint0_linear_80_4038" x1="37.7745" y1="8.58092" x2="51.9125" y2="60.0675" gradientUnits="userSpaceOnUse">
<stop stop-color="#C7045E"/>
<stop offset="1" stop-color="#85063D"/>
</linearGradient>
<linearGradient id="paint1_linear_80_4038" x1="80.4337" y1="24.9862" x2="9.47525" y2="44.4711" gradientUnits="userSpaceOnUse">
<stop stop-color="#C9A566"/>
<stop offset="0.02" stop-color="#D1B070"/>
<stop offset="0.11" stop-color="#EFD894"/>
<stop offset="0.16" stop-color="#FBE8A3"/>
<stop offset="0.2" stop-color="#EAD28F"/>
<stop offset="0.25" stop-color="#D8B978"/>
<stop offset="0.29" stop-color="#CCAA6A"/>
<stop offset="0.33" stop-color="#C9A566"/>
<stop offset="0.7" stop-color="#FEE48F"/>
<stop offset="0.82" stop-color="#DDBD75"/>
<stop offset="0.92" stop-color="#C9A566"/>
<stop offset="0.98" stop-color="#B38B51"/>
</linearGradient>
<linearGradient id="paint2_linear_80_4038" x1="27.7929" y1="40.218" x2="62.352" y2="30.7282" gradientUnits="userSpaceOnUse">
<stop stop-color="#C9A566"/>
<stop offset="0.02" stop-color="#D1B070"/>
<stop offset="0.11" stop-color="#EFD894"/>
<stop offset="0.16" stop-color="#FBE8A3"/>
<stop offset="0.2" stop-color="#EAD28F"/>
<stop offset="0.25" stop-color="#D8B978"/>
<stop offset="0.29" stop-color="#CCAA6A"/>
<stop offset="0.33" stop-color="#C9A566"/>
<stop offset="0.7" stop-color="#FEE48F"/>
<stop offset="0.82" stop-color="#DDBD75"/>
<stop offset="0.92" stop-color="#C9A566"/>
<stop offset="0.98" stop-color="#B38B51"/>
</linearGradient>
<linearGradient id="paint3_linear_80_4038" x1="27.7931" y1="40.2181" x2="62.3522" y2="30.7282" gradientUnits="userSpaceOnUse">
<stop stop-color="#C9A566"/>
<stop offset="0.02" stop-color="#D1B070"/>
<stop offset="0.11" stop-color="#EFD894"/>
<stop offset="0.16" stop-color="#FBE8A3"/>
<stop offset="0.2" stop-color="#EAD28F"/>
<stop offset="0.25" stop-color="#D8B978"/>
<stop offset="0.29" stop-color="#CCAA6A"/>
<stop offset="0.33" stop-color="#C9A566"/>
<stop offset="0.7" stop-color="#FEE48F"/>
<stop offset="0.82" stop-color="#DDBD75"/>
<stop offset="0.92" stop-color="#C9A566"/>
<stop offset="0.98" stop-color="#B38B51"/>
</linearGradient>
<linearGradient id="paint4_linear_80_4038" x1="27.7931" y1="40.2182" x2="62.3521" y2="30.7284" gradientUnits="userSpaceOnUse">
<stop stop-color="#C9A566"/>
<stop offset="0.02" stop-color="#D1B070"/>
<stop offset="0.11" stop-color="#EFD894"/>
<stop offset="0.16" stop-color="#FBE8A3"/>
<stop offset="0.2" stop-color="#EAD28F"/>
<stop offset="0.25" stop-color="#D8B978"/>
<stop offset="0.29" stop-color="#CCAA6A"/>
<stop offset="0.33" stop-color="#C9A566"/>
<stop offset="0.7" stop-color="#FEE48F"/>
<stop offset="0.82" stop-color="#DDBD75"/>
<stop offset="0.92" stop-color="#C9A566"/>
<stop offset="0.98" stop-color="#B38B51"/>
</linearGradient>
<linearGradient id="paint5_linear_80_4038" x1="27.793" y1="40.2179" x2="62.3521" y2="30.7281" gradientUnits="userSpaceOnUse">
<stop stop-color="#C9A566"/>
<stop offset="0.02" stop-color="#D1B070"/>
<stop offset="0.11" stop-color="#EFD894"/>
<stop offset="0.16" stop-color="#FBE8A3"/>
<stop offset="0.2" stop-color="#EAD28F"/>
<stop offset="0.25" stop-color="#D8B978"/>
<stop offset="0.29" stop-color="#CCAA6A"/>
<stop offset="0.33" stop-color="#C9A566"/>
<stop offset="0.7" stop-color="#FEE48F"/>
<stop offset="0.82" stop-color="#DDBD75"/>
<stop offset="0.92" stop-color="#C9A566"/>
<stop offset="0.98" stop-color="#B38B51"/>
</linearGradient>
<linearGradient id="paint6_linear_80_4038" x1="27.793" y1="40.218" x2="62.3521" y2="30.7282" gradientUnits="userSpaceOnUse">
<stop stop-color="#C9A566"/>
<stop offset="0.02" stop-color="#D1B070"/>
<stop offset="0.11" stop-color="#EFD894"/>
<stop offset="0.16" stop-color="#FBE8A3"/>
<stop offset="0.2" stop-color="#EAD28F"/>
<stop offset="0.25" stop-color="#D8B978"/>
<stop offset="0.29" stop-color="#CCAA6A"/>
<stop offset="0.33" stop-color="#C9A566"/>
<stop offset="0.7" stop-color="#FEE48F"/>
<stop offset="0.82" stop-color="#DDBD75"/>
<stop offset="0.92" stop-color="#C9A566"/>
<stop offset="0.98" stop-color="#B38B51"/>
</linearGradient>
<linearGradient id="paint7_linear_80_4038" x1="27.7931" y1="40.2181" x2="62.3523" y2="30.7283" gradientUnits="userSpaceOnUse">
<stop stop-color="#C9A566"/>
<stop offset="0.02" stop-color="#D1B070"/>
<stop offset="0.11" stop-color="#EFD894"/>
<stop offset="0.16" stop-color="#FBE8A3"/>
<stop offset="0.2" stop-color="#EAD28F"/>
<stop offset="0.25" stop-color="#D8B978"/>
<stop offset="0.29" stop-color="#CCAA6A"/>
<stop offset="0.33" stop-color="#C9A566"/>
<stop offset="0.7" stop-color="#FEE48F"/>
<stop offset="0.82" stop-color="#DDBD75"/>
<stop offset="0.92" stop-color="#C9A566"/>
<stop offset="0.98" stop-color="#B38B51"/>
</linearGradient>
<linearGradient id="paint8_linear_80_4038" x1="27.7932" y1="40.2183" x2="62.3522" y2="30.7285" gradientUnits="userSpaceOnUse">
<stop stop-color="#C9A566"/>
<stop offset="0.02" stop-color="#D1B070"/>
<stop offset="0.11" stop-color="#EFD894"/>
<stop offset="0.16" stop-color="#FBE8A3"/>
<stop offset="0.2" stop-color="#EAD28F"/>
<stop offset="0.25" stop-color="#D8B978"/>
<stop offset="0.29" stop-color="#CCAA6A"/>
<stop offset="0.33" stop-color="#C9A566"/>
<stop offset="0.7" stop-color="#FEE48F"/>
<stop offset="0.82" stop-color="#DDBD75"/>
<stop offset="0.92" stop-color="#C9A566"/>
<stop offset="0.98" stop-color="#B38B51"/>
</linearGradient>
<linearGradient id="paint9_linear_80_4038" x1="27.793" y1="40.218" x2="62.352" y2="30.7282" gradientUnits="userSpaceOnUse">
<stop stop-color="#C9A566"/>
<stop offset="0.02" stop-color="#D1B070"/>
<stop offset="0.11" stop-color="#EFD894"/>
<stop offset="0.16" stop-color="#FBE8A3"/>
<stop offset="0.2" stop-color="#EAD28F"/>
<stop offset="0.25" stop-color="#D8B978"/>
<stop offset="0.29" stop-color="#CCAA6A"/>
<stop offset="0.33" stop-color="#C9A566"/>
<stop offset="0.7" stop-color="#FEE48F"/>
<stop offset="0.82" stop-color="#DDBD75"/>
<stop offset="0.92" stop-color="#C9A566"/>
<stop offset="0.98" stop-color="#B38B51"/>
</linearGradient>
<linearGradient id="paint10_linear_80_4038" x1="27.7931" y1="40.218" x2="62.352" y2="30.7282" gradientUnits="userSpaceOnUse">
<stop stop-color="#C9A566"/>
<stop offset="0.02" stop-color="#D1B070"/>
<stop offset="0.11" stop-color="#EFD894"/>
<stop offset="0.16" stop-color="#FBE8A3"/>
<stop offset="0.2" stop-color="#EAD28F"/>
<stop offset="0.25" stop-color="#D8B978"/>
<stop offset="0.29" stop-color="#CCAA6A"/>
<stop offset="0.33" stop-color="#C9A566"/>
<stop offset="0.7" stop-color="#FEE48F"/>
<stop offset="0.82" stop-color="#DDBD75"/>
<stop offset="0.92" stop-color="#C9A566"/>
<stop offset="0.98" stop-color="#B38B51"/>
</linearGradient>
<linearGradient id="paint11_linear_80_4038" x1="27.7931" y1="40.2183" x2="62.3522" y2="30.7285" gradientUnits="userSpaceOnUse">
<stop stop-color="#C9A566"/>
<stop offset="0.02" stop-color="#D1B070"/>
<stop offset="0.11" stop-color="#EFD894"/>
<stop offset="0.16" stop-color="#FBE8A3"/>
<stop offset="0.2" stop-color="#EAD28F"/>
<stop offset="0.25" stop-color="#D8B978"/>
<stop offset="0.29" stop-color="#CCAA6A"/>
<stop offset="0.33" stop-color="#C9A566"/>
<stop offset="0.7" stop-color="#FEE48F"/>
<stop offset="0.82" stop-color="#DDBD75"/>
<stop offset="0.92" stop-color="#C9A566"/>
<stop offset="0.98" stop-color="#B38B51"/>
</linearGradient>
</defs>
</svg>
