<svg width="96" height="70" viewBox="0 0 96 70" fill="none" xmlns="http://www.w3.org/2000/svg">
<path d="M90.2513 14.5616L14.8715 1.34091C12.1429 0.862347 9.54296 2.68635 9.0644 5.41494L1.384 49.2058C0.90544 51.9344 2.72945 54.5343 5.45804 55.0129L80.8378 68.2336C83.5664 68.7122 86.1663 66.8882 86.6449 64.1596L94.3253 20.3687C94.8039 17.6401 92.9799 15.0402 90.2513 14.5616Z" fill="url(#paint0_linear_80_4066)"/>
<path d="M79.8331 65.2639L7.41345 52.5624C5.37053 52.2041 3.99411 50.2509 4.35363 48.201L11.5149 7.37026C11.8732 5.32733 13.8264 3.95091 15.8763 4.31044L88.2959 17.012C90.3388 17.3703 91.7153 19.3235 91.3557 21.3734L84.1945 62.2041C83.8362 64.247 81.883 65.6235 79.8331 65.2639ZM15.791 4.79685C14.0121 4.48485 12.3133 5.67669 12.0013 7.45557L4.84004 48.2863C4.52805 50.0652 5.71989 51.764 7.49876 52.076L79.9184 64.7775C81.6973 65.0895 83.3961 63.8977 83.7081 62.1188L90.8693 21.2881C91.1813 19.5092 89.9895 17.8104 88.2106 17.4984L15.791 4.79685Z" fill="url(#paint1_linear_80_4066)"/>
<path d="M15.8023 29.316L17.8142 28.9527C17.991 29.9864 18.7475 30.778 19.8384 30.9694C21.0684 31.1851 22.2802 30.5238 22.5422 29.0298C22.8737 27.1398 21.5676 26.3377 20.2265 26.1025C19.2884 25.938 18.0559 26.0226 17.2454 26.2744L18.6323 19.5915L25.6297 20.8188L25.3007 22.695L20.2837 21.815L19.693 24.4475C20.0935 24.4103 20.7286 24.4644 21.1595 24.54C23.5707 24.9629 25.152 26.687 24.7157 29.1747C24.238 31.8986 21.925 33.1618 19.4721 32.7316C17.4222 32.372 16.1458 31.0738 15.7953 29.3148L15.8023 29.316Z" fill="#CEA666"/>
<path d="M26.8803 27.3698C27.5774 23.3951 29.5772 21.1817 32.3706 21.6716C35.164 22.1616 36.2576 24.9104 35.5593 28.892C34.8609 32.8736 32.8832 35.0838 30.1037 34.5963C27.3242 34.1088 26.182 31.3514 26.8803 27.3698ZM33.426 28.5179C33.727 26.8015 33.9212 23.7342 32.0659 23.4088C30.2106 23.0834 29.3158 26.0207 29.0136 27.744C28.7113 29.4673 28.5384 32.4953 30.4145 32.8243C32.2907 33.1534 33.1238 30.2411 33.426 28.5179Z" fill="#CEA666"/>
<path d="M37.4564 29.2248C38.1535 25.2502 40.1532 23.0367 42.9466 23.5266C45.74 24.0166 46.8336 26.7654 46.1353 30.747C45.437 34.7286 43.4593 36.9388 40.6798 36.4513C37.9003 35.9638 36.758 33.2064 37.4564 29.2248ZM44.0021 30.3729C44.3031 28.6565 44.4973 25.5892 42.6419 25.2638C40.7866 24.9384 39.8919 27.8757 39.5896 29.599C39.2874 31.3223 39.1144 34.3503 40.9906 34.6794C42.8667 35.0084 43.6998 32.0961 44.0021 30.3729Z" fill="#CEA666"/>
<path d="M50.3948 31.4941C51.0919 27.5194 53.0917 25.306 55.8851 25.7959C58.6785 26.2858 59.7721 29.0347 59.0738 33.0163C58.3754 36.9979 56.3977 39.208 53.6182 38.7206C50.8388 38.2331 49.6965 35.4757 50.3948 31.4941ZM56.9475 32.6434C57.2485 30.927 57.4427 27.8597 55.5873 27.5343C53.732 27.2089 52.8373 30.1462 52.535 31.8695C52.2328 33.5927 52.0598 36.6208 53.936 36.9498C55.8121 37.2789 56.6452 34.3666 56.9475 32.6434Z" fill="#CEA666"/>
<path d="M60.9707 33.349C61.6678 29.3743 63.6676 27.1608 66.461 27.6508C69.2544 28.1407 70.348 30.8895 69.6497 34.8711C68.9513 38.8528 66.9736 41.0629 64.1941 40.5754C61.4146 40.0879 60.2724 37.3306 60.9707 33.349ZM67.5164 34.497C67.8174 32.7806 68.0116 29.7134 66.1563 29.388C64.301 29.0626 63.4062 31.9998 63.104 33.7231C62.8017 35.4464 62.6288 38.4744 64.5049 38.8035C66.3811 39.1325 67.2142 36.2203 67.5164 34.497Z" fill="#CEA666"/>
<path d="M71.5468 35.2038C72.2439 31.2291 74.2436 29.0157 77.037 29.5056C79.8304 29.9956 80.924 32.7444 80.2257 36.726C79.5274 40.7076 77.5497 42.9177 74.7702 42.4303C71.9907 41.9428 70.8484 39.1854 71.5468 35.2038ZM78.0925 36.3518C78.3935 34.6355 78.5876 31.5682 76.7323 31.2428C74.877 30.9174 73.9823 33.8547 73.68 35.578C73.3778 37.3012 73.2048 40.3293 75.081 40.6583C76.9571 40.9874 77.7902 38.0751 78.0925 36.3518Z" fill="#CEA666"/>
<path d="M34.5856 39.9163L35.9336 40.1527C36.8926 40.3209 37.4534 40.7989 37.3022 41.6605C37.1511 42.5222 36.388 42.7894 35.4708 42.6286L34.769 42.5055L34.4277 44.4511L33.8093 44.3427L34.5856 39.9163ZM35.5135 42.0989C36.1181 42.2049 36.5842 42.079 36.6756 41.5578C36.767 41.0366 36.3622 40.7723 35.7785 40.6699L35.1114 40.5529L34.8604 41.9843L35.5205 42.1001L35.5135 42.0989Z" fill="#CEA666"/>
<path d="M37.427 44.9914L37.616 44.4444C37.7084 44.4892 37.8299 44.532 37.9549 44.554C38.2746 44.61 38.4624 44.4782 38.704 44.1625L38.9901 43.7972L37.8039 40.4735L38.5266 40.6003L39.4424 43.2606L41.1532 41.0609L41.8412 41.1816L39.2634 44.4038C38.8765 44.8946 38.5257 45.2199 37.9004 45.1102C37.7127 45.0773 37.5496 45.0272 37.4282 44.9844L37.427 44.9914Z" fill="#CEA666"/>
<path d="M42.4862 41.3019L45.2518 41.7869L45.158 42.322L43.0108 41.9454L42.7768 43.2795L43.6107 43.4258C44.5488 43.5903 45.1521 44.1116 44.9973 44.994C44.8425 45.8765 44.1117 46.1638 43.1667 45.998L41.7075 45.7421L42.4838 41.3158L42.4862 41.3019ZM43.191 45.4508C43.8442 45.5654 44.2805 45.4055 44.3719 44.8844C44.4633 44.3632 44.1238 44.053 43.4567 43.936L42.6854 43.8007L42.4197 45.3155L43.191 45.4508Z" fill="#CEA666"/>
<path d="M45.262 46.344L45.4416 45.8097C45.5271 45.8533 45.5941 45.8794 45.7053 45.8989C46.3793 46.0171 46.7861 45.3722 47.1542 43.2737L47.3491 42.1619L50.2051 42.6628L49.4288 47.0891L48.8103 46.9807L49.4916 43.0963L47.8586 42.8099L47.7307 43.5396C47.3517 45.7006 46.8018 46.6714 45.7386 46.4849C45.5997 46.4605 45.3948 46.4031 45.2759 46.3464L45.262 46.344Z" fill="#CEA666"/>
<path d="M51.2973 42.8473L54.1393 43.3458L54.0442 43.8878L51.8206 43.4978L51.5879 44.825L53.6794 45.1918L53.5868 45.7199L51.4952 45.3531L51.2369 46.8262L53.5508 47.232L53.4545 47.781L50.5222 47.2667L51.2985 42.8404L51.2973 42.8473Z" fill="#CEA666"/>
<path d="M55.0357 43.503L55.6541 43.6114L55.0387 47.1205L55.0525 47.123L57.8986 44.0051L58.5795 44.1245L57.8032 48.5508L57.1848 48.4424L57.8002 44.9333L57.7863 44.9308L54.9403 48.0487L54.2594 47.9293L55.0357 43.503ZM56.0423 42.4189L56.4089 42.4116C56.4039 42.7259 56.6154 42.9492 56.9281 43.004C57.2408 43.0589 57.5157 42.9208 57.618 42.6236L57.9602 42.7553C57.8062 43.2655 57.3762 43.5123 56.8481 43.4197C56.3199 43.3271 55.9996 42.9486 56.0284 42.4165L56.0423 42.4189Z" fill="#CEA666"/>
<path d="M15.8023 29.316L17.8142 28.9527C17.991 29.9864 18.7475 30.778 19.8384 30.9694C21.0684 31.1851 22.2802 30.5238 22.5422 29.0298C22.8737 27.1398 21.5676 26.3377 20.2265 26.1025C19.2884 25.938 18.0559 26.0226 17.2454 26.2744L18.6323 19.5915L25.6297 20.8188L25.3007 22.695L20.2837 21.815L19.693 24.4475C20.0935 24.4103 20.7286 24.4644 21.1595 24.54C23.5707 24.9629 25.152 26.687 24.7157 29.1747C24.238 31.8986 21.925 33.1618 19.4721 32.7316C17.4222 32.372 16.1458 31.0738 15.7953 29.3148L15.8023 29.316Z" fill="url(#paint2_linear_80_4066)"/>
<path d="M26.8803 27.3698C27.5774 23.3951 29.5772 21.1817 32.3706 21.6716C35.164 22.1616 36.2576 24.9104 35.5593 28.892C34.8609 32.8736 32.8832 35.0838 30.1037 34.5963C27.3242 34.1088 26.182 31.3514 26.8803 27.3698ZM33.426 28.5179C33.727 26.8015 33.9212 23.7342 32.0659 23.4088C30.2106 23.0834 29.3158 26.0207 29.0136 27.744C28.7113 29.4673 28.5384 32.4953 30.4145 32.8243C32.2907 33.1534 33.1238 30.2411 33.426 28.5179Z" fill="url(#paint3_linear_80_4066)"/>
<path d="M37.4564 29.2248C38.1535 25.2502 40.1532 23.0367 42.9466 23.5266C45.74 24.0166 46.8336 26.7654 46.1353 30.747C45.437 34.7286 43.4593 36.9388 40.6798 36.4513C37.9003 35.9638 36.758 33.2064 37.4564 29.2248ZM44.0021 30.3729C44.3031 28.6565 44.4973 25.5892 42.6419 25.2638C40.7866 24.9384 39.8919 27.8757 39.5896 29.599C39.2874 31.3223 39.1144 34.3503 40.9906 34.6794C42.8667 35.0084 43.6998 32.0961 44.0021 30.3729Z" fill="url(#paint4_linear_80_4066)"/>
<path d="M50.3948 31.4941C51.0919 27.5194 53.0917 25.306 55.8851 25.7959C58.6785 26.2858 59.7721 29.0347 59.0738 33.0163C58.3754 36.9979 56.3977 39.208 53.6182 38.7206C50.8388 38.2331 49.6965 35.4757 50.3948 31.4941ZM56.9475 32.6434C57.2485 30.927 57.4427 27.8597 55.5873 27.5343C53.732 27.2089 52.8373 30.1462 52.535 31.8695C52.2328 33.5927 52.0598 36.6208 53.936 36.9498C55.8121 37.2789 56.6452 34.3666 56.9475 32.6434Z" fill="url(#paint5_linear_80_4066)"/>
<path d="M60.9707 33.349C61.6678 29.3743 63.6676 27.1608 66.461 27.6508C69.2544 28.1407 70.348 30.8895 69.6497 34.8711C68.9513 38.8528 66.9736 41.0629 64.1941 40.5754C61.4146 40.0879 60.2724 37.3306 60.9707 33.349ZM67.5164 34.497C67.8174 32.7806 68.0116 29.7134 66.1563 29.388C64.301 29.0626 63.4062 31.9998 63.104 33.7231C62.8017 35.4464 62.6288 38.4744 64.5049 38.8035C66.3811 39.1325 67.2142 36.2203 67.5164 34.497Z" fill="url(#paint6_linear_80_4066)"/>
<path d="M71.5468 35.2038C72.2439 31.2291 74.2436 29.0157 77.037 29.5056C79.8304 29.9956 80.924 32.7444 80.2257 36.726C79.5274 40.7076 77.5497 42.9177 74.7702 42.4303C71.9907 41.9428 70.8484 39.1854 71.5468 35.2038ZM78.0925 36.3518C78.3935 34.6355 78.5876 31.5682 76.7323 31.2428C74.877 30.9174 73.9823 33.8547 73.68 35.578C73.3778 37.3012 73.2048 40.3293 75.081 40.6583C76.9571 40.9874 77.7902 38.0751 78.0925 36.3518Z" fill="url(#paint7_linear_80_4066)"/>
<path d="M34.5856 39.9163L35.9336 40.1527C36.8926 40.3209 37.4534 40.7989 37.3022 41.6605C37.1511 42.5222 36.388 42.7894 35.4708 42.6286L34.769 42.5055L34.4277 44.4511L33.8093 44.3427L34.5856 39.9163ZM35.5135 42.0989C36.1181 42.2049 36.5842 42.079 36.6756 41.5578C36.767 41.0366 36.3622 40.7723 35.7785 40.6699L35.1114 40.5529L34.8604 41.9843L35.5205 42.1001L35.5135 42.0989Z" fill="url(#paint8_linear_80_4066)"/>
<path d="M37.427 44.9914L37.616 44.4444C37.7084 44.4892 37.8299 44.532 37.9549 44.554C38.2746 44.61 38.4624 44.4782 38.704 44.1625L38.9901 43.7972L37.8039 40.4735L38.5266 40.6003L39.4424 43.2606L41.1532 41.0609L41.8412 41.1816L39.2634 44.4038C38.8765 44.8946 38.5257 45.2199 37.9004 45.1102C37.7127 45.0773 37.5496 45.0272 37.4282 44.9844L37.427 44.9914Z" fill="url(#paint9_linear_80_4066)"/>
<path d="M42.4862 41.3019L45.2518 41.7869L45.158 42.322L43.0108 41.9454L42.7768 43.2795L43.6107 43.4258C44.5488 43.5903 45.1521 44.1116 44.9973 44.994C44.8425 45.8765 44.1117 46.1638 43.1667 45.998L41.7075 45.7421L42.4838 41.3158L42.4862 41.3019ZM43.191 45.4508C43.8442 45.5654 44.2805 45.4055 44.3719 44.8844C44.4633 44.3632 44.1238 44.053 43.4567 43.936L42.6854 43.8007L42.4197 45.3155L43.191 45.4508Z" fill="url(#paint10_linear_80_4066)"/>
<path d="M45.262 46.344L45.4416 45.8097C45.5271 45.8533 45.5941 45.8794 45.7053 45.8989C46.3793 46.0171 46.7861 45.3722 47.1542 43.2737L47.3491 42.1619L50.2051 42.6628L49.4288 47.0891L48.8103 46.9807L49.4916 43.0963L47.8586 42.8099L47.7307 43.5396C47.3517 45.7006 46.8018 46.6714 45.7386 46.4849C45.5997 46.4605 45.3948 46.4031 45.2759 46.3464L45.262 46.344Z" fill="url(#paint11_linear_80_4066)"/>
<path d="M51.2973 42.8473L54.1393 43.3458L54.0442 43.8878L51.8206 43.4978L51.5879 44.825L53.6794 45.1918L53.5868 45.7199L51.4952 45.3531L51.2369 46.8262L53.5508 47.232L53.4545 47.781L50.5222 47.2667L51.2985 42.8404L51.2973 42.8473Z" fill="url(#paint12_linear_80_4066)"/>
<path d="M55.0357 43.503L55.6541 43.6114L55.0387 47.1205L55.0525 47.123L57.8986 44.0051L58.5795 44.1245L57.8032 48.5508L57.1848 48.4424L57.8002 44.9333L57.7863 44.9308L54.9403 48.0487L54.2594 47.9293L55.0357 43.503ZM56.0423 42.4189L56.4089 42.4116C56.4039 42.7259 56.6154 42.9492 56.9281 43.004C57.2408 43.0589 57.5157 42.9208 57.618 42.6236L57.9602 42.7553C57.8062 43.2655 57.3762 43.5123 56.8481 43.4197C56.3199 43.3271 55.9996 42.9486 56.0284 42.4165L56.0423 42.4189Z" fill="url(#paint13_linear_80_4066)"/>
<defs>
<linearGradient id="paint0_linear_80_4066" x1="52.5614" y1="7.95126" x2="52.5614" y2="7.95126" gradientUnits="userSpaceOnUse">
<stop stop-color="#C7045E"/>
<stop offset="1" stop-color="#85063D"/>
</linearGradient>
<linearGradient id="paint1_linear_80_4066" x1="92.4749" y1="14.9515" x2="12.641" y2="0.949634" gradientUnits="userSpaceOnUse">
<stop stop-color="#C9A566"/>
<stop offset="0.02" stop-color="#D1B070"/>
<stop offset="0.11" stop-color="#EFD894"/>
<stop offset="0.16" stop-color="#FBE8A3"/>
<stop offset="0.2" stop-color="#EAD28F"/>
<stop offset="0.25" stop-color="#D8B978"/>
<stop offset="0.29" stop-color="#CCAA6A"/>
<stop offset="0.33" stop-color="#C9A566"/>
<stop offset="0.7" stop-color="#FEE48F"/>
<stop offset="0.82" stop-color="#DDBD75"/>
<stop offset="0.92" stop-color="#C9A566"/>
<stop offset="0.98" stop-color="#B38B51"/>
</linearGradient>
<linearGradient id="paint2_linear_80_4066" x1="15.6853" y1="29.9831" x2="79.4538" y2="41.1673" gradientUnits="userSpaceOnUse">
<stop stop-color="#C9A566"/>
<stop offset="0.02" stop-color="#D1B070"/>
<stop offset="0.11" stop-color="#EFD894"/>
<stop offset="0.16" stop-color="#FBE8A3"/>
<stop offset="0.2" stop-color="#EAD28F"/>
<stop offset="0.25" stop-color="#D8B978"/>
<stop offset="0.29" stop-color="#CCAA6A"/>
<stop offset="0.33" stop-color="#C9A566"/>
<stop offset="0.7" stop-color="#FEE48F"/>
<stop offset="0.82" stop-color="#DDBD75"/>
<stop offset="0.92" stop-color="#C9A566"/>
<stop offset="0.98" stop-color="#B38B51"/>
</linearGradient>
<linearGradient id="paint3_linear_80_4066" x1="15.6854" y1="29.9832" x2="79.4538" y2="41.1674" gradientUnits="userSpaceOnUse">
<stop stop-color="#C9A566"/>
<stop offset="0.02" stop-color="#D1B070"/>
<stop offset="0.11" stop-color="#EFD894"/>
<stop offset="0.16" stop-color="#FBE8A3"/>
<stop offset="0.2" stop-color="#EAD28F"/>
<stop offset="0.25" stop-color="#D8B978"/>
<stop offset="0.29" stop-color="#CCAA6A"/>
<stop offset="0.33" stop-color="#C9A566"/>
<stop offset="0.7" stop-color="#FEE48F"/>
<stop offset="0.82" stop-color="#DDBD75"/>
<stop offset="0.92" stop-color="#C9A566"/>
<stop offset="0.98" stop-color="#B38B51"/>
</linearGradient>
<linearGradient id="paint4_linear_80_4066" x1="15.6855" y1="29.9833" x2="79.4539" y2="41.1675" gradientUnits="userSpaceOnUse">
<stop stop-color="#C9A566"/>
<stop offset="0.02" stop-color="#D1B070"/>
<stop offset="0.11" stop-color="#EFD894"/>
<stop offset="0.16" stop-color="#FBE8A3"/>
<stop offset="0.2" stop-color="#EAD28F"/>
<stop offset="0.25" stop-color="#D8B978"/>
<stop offset="0.29" stop-color="#CCAA6A"/>
<stop offset="0.33" stop-color="#C9A566"/>
<stop offset="0.7" stop-color="#FEE48F"/>
<stop offset="0.82" stop-color="#DDBD75"/>
<stop offset="0.92" stop-color="#C9A566"/>
<stop offset="0.98" stop-color="#B38B51"/>
</linearGradient>
<linearGradient id="paint5_linear_80_4066" x1="15.6854" y1="29.9833" x2="79.4539" y2="41.1675" gradientUnits="userSpaceOnUse">
<stop stop-color="#C9A566"/>
<stop offset="0.02" stop-color="#D1B070"/>
<stop offset="0.11" stop-color="#EFD894"/>
<stop offset="0.16" stop-color="#FBE8A3"/>
<stop offset="0.2" stop-color="#EAD28F"/>
<stop offset="0.25" stop-color="#D8B978"/>
<stop offset="0.29" stop-color="#CCAA6A"/>
<stop offset="0.33" stop-color="#C9A566"/>
<stop offset="0.7" stop-color="#FEE48F"/>
<stop offset="0.82" stop-color="#DDBD75"/>
<stop offset="0.92" stop-color="#C9A566"/>
<stop offset="0.98" stop-color="#B38B51"/>
</linearGradient>
<linearGradient id="paint6_linear_80_4066" x1="15.6854" y1="29.9833" x2="79.4538" y2="41.1675" gradientUnits="userSpaceOnUse">
<stop stop-color="#C9A566"/>
<stop offset="0.02" stop-color="#D1B070"/>
<stop offset="0.11" stop-color="#EFD894"/>
<stop offset="0.16" stop-color="#FBE8A3"/>
<stop offset="0.2" stop-color="#EAD28F"/>
<stop offset="0.25" stop-color="#D8B978"/>
<stop offset="0.29" stop-color="#CCAA6A"/>
<stop offset="0.33" stop-color="#C9A566"/>
<stop offset="0.7" stop-color="#FEE48F"/>
<stop offset="0.82" stop-color="#DDBD75"/>
<stop offset="0.92" stop-color="#C9A566"/>
<stop offset="0.98" stop-color="#B38B51"/>
</linearGradient>
<linearGradient id="paint7_linear_80_4066" x1="15.6855" y1="29.9832" x2="79.4539" y2="41.1674" gradientUnits="userSpaceOnUse">
<stop stop-color="#C9A566"/>
<stop offset="0.02" stop-color="#D1B070"/>
<stop offset="0.11" stop-color="#EFD894"/>
<stop offset="0.16" stop-color="#FBE8A3"/>
<stop offset="0.2" stop-color="#EAD28F"/>
<stop offset="0.25" stop-color="#D8B978"/>
<stop offset="0.29" stop-color="#CCAA6A"/>
<stop offset="0.33" stop-color="#C9A566"/>
<stop offset="0.7" stop-color="#FEE48F"/>
<stop offset="0.82" stop-color="#DDBD75"/>
<stop offset="0.92" stop-color="#C9A566"/>
<stop offset="0.98" stop-color="#B38B51"/>
</linearGradient>
<linearGradient id="paint8_linear_80_4066" x1="15.6855" y1="29.9833" x2="79.454" y2="41.1675" gradientUnits="userSpaceOnUse">
<stop stop-color="#C9A566"/>
<stop offset="0.02" stop-color="#D1B070"/>
<stop offset="0.11" stop-color="#EFD894"/>
<stop offset="0.16" stop-color="#FBE8A3"/>
<stop offset="0.2" stop-color="#EAD28F"/>
<stop offset="0.25" stop-color="#D8B978"/>
<stop offset="0.29" stop-color="#CCAA6A"/>
<stop offset="0.33" stop-color="#C9A566"/>
<stop offset="0.7" stop-color="#FEE48F"/>
<stop offset="0.82" stop-color="#DDBD75"/>
<stop offset="0.92" stop-color="#C9A566"/>
<stop offset="0.98" stop-color="#B38B51"/>
</linearGradient>
<linearGradient id="paint9_linear_80_4066" x1="15.6853" y1="29.9832" x2="79.4538" y2="41.1674" gradientUnits="userSpaceOnUse">
<stop stop-color="#C9A566"/>
<stop offset="0.02" stop-color="#D1B070"/>
<stop offset="0.11" stop-color="#EFD894"/>
<stop offset="0.16" stop-color="#FBE8A3"/>
<stop offset="0.2" stop-color="#EAD28F"/>
<stop offset="0.25" stop-color="#D8B978"/>
<stop offset="0.29" stop-color="#CCAA6A"/>
<stop offset="0.33" stop-color="#C9A566"/>
<stop offset="0.7" stop-color="#FEE48F"/>
<stop offset="0.82" stop-color="#DDBD75"/>
<stop offset="0.92" stop-color="#C9A566"/>
<stop offset="0.98" stop-color="#B38B51"/>
</linearGradient>
<linearGradient id="paint10_linear_80_4066" x1="15.6854" y1="29.9832" x2="79.4539" y2="41.1674" gradientUnits="userSpaceOnUse">
<stop stop-color="#C9A566"/>
<stop offset="0.02" stop-color="#D1B070"/>
<stop offset="0.11" stop-color="#EFD894"/>
<stop offset="0.16" stop-color="#FBE8A3"/>
<stop offset="0.2" stop-color="#EAD28F"/>
<stop offset="0.25" stop-color="#D8B978"/>
<stop offset="0.29" stop-color="#CCAA6A"/>
<stop offset="0.33" stop-color="#C9A566"/>
<stop offset="0.7" stop-color="#FEE48F"/>
<stop offset="0.82" stop-color="#DDBD75"/>
<stop offset="0.92" stop-color="#C9A566"/>
<stop offset="0.98" stop-color="#B38B51"/>
</linearGradient>
<linearGradient id="paint11_linear_80_4066" x1="15.6854" y1="29.9832" x2="79.4539" y2="41.1674" gradientUnits="userSpaceOnUse">
<stop stop-color="#C9A566"/>
<stop offset="0.02" stop-color="#D1B070"/>
<stop offset="0.11" stop-color="#EFD894"/>
<stop offset="0.16" stop-color="#FBE8A3"/>
<stop offset="0.2" stop-color="#EAD28F"/>
<stop offset="0.25" stop-color="#D8B978"/>
<stop offset="0.29" stop-color="#CCAA6A"/>
<stop offset="0.33" stop-color="#C9A566"/>
<stop offset="0.7" stop-color="#FEE48F"/>
<stop offset="0.82" stop-color="#DDBD75"/>
<stop offset="0.92" stop-color="#C9A566"/>
<stop offset="0.98" stop-color="#B38B51"/>
</linearGradient>
<linearGradient id="paint12_linear_80_4066" x1="15.6854" y1="29.9833" x2="79.4539" y2="41.1675" gradientUnits="userSpaceOnUse">
<stop stop-color="#C9A566"/>
<stop offset="0.02" stop-color="#D1B070"/>
<stop offset="0.11" stop-color="#EFD894"/>
<stop offset="0.16" stop-color="#FBE8A3"/>
<stop offset="0.2" stop-color="#EAD28F"/>
<stop offset="0.25" stop-color="#D8B978"/>
<stop offset="0.29" stop-color="#CCAA6A"/>
<stop offset="0.33" stop-color="#C9A566"/>
<stop offset="0.7" stop-color="#FEE48F"/>
<stop offset="0.82" stop-color="#DDBD75"/>
<stop offset="0.92" stop-color="#C9A566"/>
<stop offset="0.98" stop-color="#B38B51"/>
</linearGradient>
<linearGradient id="paint13_linear_80_4066" x1="15.6856" y1="29.9833" x2="79.4538" y2="41.1675" gradientUnits="userSpaceOnUse">
<stop stop-color="#C9A566"/>
<stop offset="0.02" stop-color="#D1B070"/>
<stop offset="0.11" stop-color="#EFD894"/>
<stop offset="0.16" stop-color="#FBE8A3"/>
<stop offset="0.2" stop-color="#EAD28F"/>
<stop offset="0.25" stop-color="#D8B978"/>
<stop offset="0.29" stop-color="#CCAA6A"/>
<stop offset="0.33" stop-color="#C9A566"/>
<stop offset="0.7" stop-color="#FEE48F"/>
<stop offset="0.82" stop-color="#DDBD75"/>
<stop offset="0.92" stop-color="#C9A566"/>
<stop offset="0.98" stop-color="#B38B51"/>
</linearGradient>
</defs>
</svg>
