<svg width="81" height="98" viewBox="0 0 81 98" fill="none" xmlns="http://www.w3.org/2000/svg">
<path d="M16.7956 70.1903C16.3391 84.849 27.8538 97.0971 42.5125 97.5536C57.1712 98.0049 69.4192 86.4903 69.8706 71.8316C70.322 57.1729 58.8125 44.9248 44.1537 44.4683C29.495 44.017 17.247 55.5316 16.7956 70.1852V70.1903Z" fill="#F0AE6A"/>
<path d="M26.3612 70.4826C26.0689 79.8533 33.4341 87.6904 42.8099 87.9828C52.1858 88.2752 60.0177 80.9099 60.3101 71.5341C60.5973 62.1582 53.2372 54.3262 43.8614 54.0339C34.4856 53.7415 26.6536 61.1068 26.3612 70.4826Z" fill="#522202"/>
<path d="M23.7045 80.9457L24.5201 80.6893L24.2636 79.8686L25.0176 80.2738L25.4176 79.5199L25.669 80.3303L26.4845 80.0789L26.0844 80.838L26.8332 81.2381L26.0331 81.4894L26.2895 82.3203L25.5151 81.91L25.1253 82.6486L24.8739 81.8484L24.0379 82.11L24.4482 81.3407L23.7045 80.9457Z" fill="#522202"/>
<path d="M61.577 66.2975L62.3874 66.0462L62.1361 65.2204L62.89 65.6256L63.285 64.8768L63.5363 65.6872L64.3569 65.4307L63.9517 66.1949L64.7057 66.5899L63.9004 66.8412L64.1569 67.6772L63.3824 67.2618L62.9926 68.0055L62.7413 67.2053L61.9052 67.4618L62.3156 66.6976L61.577 66.2975Z" fill="#522202"/>
<path d="M24.2584 69.2724L22.6017 69.18L22.5146 70.6982L24.1764 70.7854L24.1251 71.724L20.1604 71.5086L20.2116 70.57L21.7093 70.6521L21.7914 69.139L20.2937 69.057L20.345 68.1183L24.3046 68.3338L24.2584 69.2724Z" fill="#522202"/>
<path d="M24.8687 65.9128L24.5404 66.877L21.3143 64.0458L21.6118 63.1841L25.8894 62.9431L25.5508 63.933L24.7148 63.9689L24.2276 65.3896L24.8687 65.9128ZM23.5865 64.887L23.9045 63.9637L22.4581 63.9791L23.5865 64.887Z" fill="#522202"/>
<path d="M28.1257 59.3015C28.0795 59.5785 27.9667 59.8503 27.7821 60.1221C27.6128 60.3735 27.4179 60.5735 27.1922 60.7274C26.9665 60.8812 26.7255 60.9838 26.4639 61.0351C26.2074 61.0864 25.9408 61.0813 25.6689 61.0248C25.3971 60.9684 25.1303 60.8505 24.8739 60.6812C24.6123 60.5017 24.402 60.2965 24.2482 60.0606C24.0943 59.8298 23.9968 59.5785 23.9558 59.3169C23.9147 59.0604 23.9199 58.7937 23.9866 58.527C24.0533 58.2603 24.1661 58.0039 24.3302 57.7577C24.4841 57.532 24.679 57.3371 24.9098 57.1678C25.1406 57.0037 25.3817 56.9062 25.633 56.8755L25.8125 57.7679C25.6637 57.7679 25.5202 57.8141 25.3919 57.9013C25.2637 57.9833 25.156 58.0859 25.0688 58.2141C24.9765 58.3526 24.9201 58.4911 24.8893 58.6398C24.8637 58.7886 24.8688 58.9322 24.8996 59.0758C24.9355 59.2194 24.997 59.3528 25.0893 59.481C25.1817 59.6092 25.2996 59.7221 25.4432 59.8247C25.5919 59.9221 25.7458 59.9939 25.8997 60.0349C26.0536 60.0708 26.2023 60.0811 26.3459 60.0606C26.4895 60.0401 26.6229 59.9888 26.746 59.9118C26.8742 59.8349 26.9819 59.7272 27.0691 59.5938C27.1717 59.44 27.2332 59.281 27.2486 59.1271C27.264 58.9681 27.2486 58.8245 27.1973 58.686L28.0847 58.4962C28.1513 58.7527 28.1667 59.0194 28.1205 59.2912" fill="#522202"/>
<path d="M28.7667 54.2444L30.8696 56.5935L30.1721 57.2192L28.0692 54.8701L27.2486 55.6036L26.7049 54.9932L29.0437 52.9006L29.5874 53.5109L28.7667 54.2444Z" fill="#522202"/>
<path d="M35.7064 51.3464C35.8449 51.6285 35.9269 51.9106 35.9475 52.1876C35.968 52.4697 35.9372 52.7313 35.85 52.9826C35.7628 53.2339 35.6243 53.4596 35.4397 53.6647C35.2499 53.8699 35.0191 54.0443 34.7473 54.1776C34.4755 54.3161 34.1985 54.3931 33.9215 54.4187C33.6446 54.4392 33.383 54.4187 33.1316 54.3315C32.8803 54.2495 32.6495 54.1161 32.4392 53.9315C32.2289 53.7468 32.0546 53.5109 31.9161 53.2339C31.7776 52.9467 31.6955 52.6697 31.675 52.3928C31.6545 52.1158 31.6955 51.8542 31.7827 51.608C31.8699 51.3618 32.0084 51.1413 32.1982 50.9361C32.388 50.7361 32.6188 50.5668 32.8906 50.4283C33.1624 50.295 33.4343 50.2129 33.7112 50.1822C33.9882 50.1514 34.2498 50.1822 34.496 50.254C34.7473 50.3309 34.973 50.4591 35.1832 50.6438C35.3935 50.8233 35.5679 51.0592 35.7064 51.3413M34.8088 51.7927C34.7319 51.6388 34.6345 51.5054 34.5216 51.3977C34.4088 51.2849 34.2805 51.208 34.1472 51.1515C34.0087 51.1002 33.8702 51.0797 33.7164 51.0849C33.5676 51.09 33.4189 51.131 33.2701 51.2028C33.1214 51.2746 32.9983 51.3721 32.906 51.4849C32.8137 51.5978 32.747 51.726 32.7008 51.8696C32.6598 52.0081 32.6444 52.1568 32.6649 52.3158C32.6854 52.4748 32.7316 52.6287 32.8085 52.7826C32.8906 52.9416 32.9881 53.08 33.106 53.1929C33.224 53.3057 33.3471 53.3878 33.4856 53.4391C33.6189 53.4955 33.7625 53.516 33.9113 53.5109C34.06 53.5109 34.2087 53.4647 34.3575 53.3929C34.5011 53.3211 34.6242 53.2237 34.7165 53.1057C34.8088 52.9929 34.8806 52.8646 34.9217 52.721C34.9576 52.5774 34.973 52.4287 34.9525 52.2697C34.9371 52.1107 34.8858 51.9517 34.8037 51.7875" fill="#522202"/>
<path d="M38.6709 50.7668C38.399 50.7668 38.1733 50.7104 37.9887 50.5822C37.804 50.4539 37.6861 50.259 37.6348 49.9975C37.563 49.6179 37.6605 49.2897 37.9118 49.0281C38.1631 48.7665 38.5734 48.5819 39.1427 48.4793L40.543 48.2228L41.2508 52.1311L40.3327 52.3004L40.0762 50.8797L39.7479 50.9412C39.4761 50.9874 39.271 51.1515 39.1274 51.4285C38.9837 51.7054 38.9221 52.0798 38.9478 52.5517L37.9425 52.7312C37.9117 52.5004 37.9117 52.285 37.9425 52.0798C37.9733 51.8798 38.0246 51.7003 38.0913 51.5413C38.1631 51.3823 38.2452 51.2387 38.3477 51.1105C38.4452 50.9822 38.558 50.8745 38.676 50.7771V50.7668H38.6709ZM39.7685 49.182L39.3684 49.2538C39.0812 49.3051 38.8811 49.382 38.7632 49.4846C38.6503 49.5871 38.6042 49.7154 38.6349 49.8692C38.6452 49.9308 38.6708 49.9821 38.7067 50.0282C38.7426 50.0744 38.7991 50.1154 38.8658 50.1411C38.9376 50.1667 39.0248 50.1821 39.1376 50.1872C39.2505 50.1924 39.3838 50.1821 39.5428 50.1513L39.9326 50.0795L39.7685 49.182Z" fill="#522202"/>
<path d="M43.1537 51.9156L43.6973 47.9817L44.6205 48.1099L44.1897 51.2437L45.1642 51.3771L45.5951 48.2433L46.5234 48.3715L46.0926 51.5053L47.062 51.6387L47.4876 48.5049L48.416 48.6331L47.9852 51.7669L48.6161 51.849L48.4058 53.4236L47.6415 53.321L47.7441 52.5465L43.1537 51.9156Z" fill="#522202"/>
<path d="M51.4781 52.5465L54.1093 50.9052L55.0581 51.3822L53.2784 54.9315L52.4423 54.5109L53.6169 52.1772L53.6015 52.1669L50.9806 53.7774L50.0369 53.3056L51.8166 49.7563L52.6526 50.1718L51.4627 52.5413L51.4781 52.5465Z" fill="#522202"/>
<path d="M59.2946 53.1056C59.2536 53.2287 59.2484 53.3569 59.2843 53.4852C59.3151 53.6185 59.3766 53.7262 59.4638 53.8083C59.551 53.8903 59.6587 53.9468 59.7921 53.9673C59.9254 53.9929 60.0485 53.9827 60.1716 53.9365L60.3358 54.4648C60.2537 54.5058 60.1563 54.5263 60.0537 54.5366C59.9511 54.5417 59.8434 54.5366 59.7305 54.511C59.6228 54.4853 59.5151 54.4494 59.4074 54.393C59.2997 54.3366 59.1971 54.2648 59.11 54.1776C59.0176 54.0904 58.9407 53.9929 58.8792 53.8903C58.8176 53.7878 58.7766 53.6801 58.7458 53.5724C58.715 53.4646 58.7047 53.3569 58.7047 53.2543C58.7047 53.1518 58.7253 53.0543 58.7612 52.9723L59.2997 53.1056H59.2946ZM59.4074 54.8803L60.2178 55.6445L57.4892 58.527L56.8122 57.8859L58.6022 56.0035L58.5919 55.9932L55.6735 56.8036L54.8683 56.0445L57.5969 53.162L58.2739 53.8032L56.489 55.6804L56.4993 55.6906L59.4125 54.8803H59.4074Z" fill="#522202"/>
<path d="M33.0443 90.7936L34.424 87.9521L35.2652 88.3573L33.8803 91.2039L34.7317 91.6193L36.1166 88.7727L36.9578 89.1831L35.219 92.7528L30.967 90.6859L32.7006 87.1109L33.5418 87.5213L32.1569 90.3679L33.0443 90.7936Z" fill="#522202"/>
<path d="M42.4048 92.1272C42.3638 92.4401 42.2715 92.7119 42.1278 92.9581C41.9894 93.2043 41.8098 93.4043 41.5995 93.5582C41.3892 93.7172 41.1482 93.8249 40.8763 93.8916C40.6045 93.9583 40.3173 93.9685 40.0147 93.9275C39.7172 93.8865 39.4403 93.7993 39.1992 93.6608C38.9581 93.5274 38.7529 93.353 38.5939 93.1428C38.4298 92.9325 38.317 92.6965 38.2451 92.4247C38.1733 92.1529 38.1631 91.8605 38.2041 91.5476C38.2503 91.2348 38.3375 90.9578 38.476 90.7167C38.6196 90.4757 38.794 90.2808 39.0043 90.132C39.2146 89.9782 39.4556 89.8705 39.7274 89.8089C39.9993 89.7474 40.2814 89.7422 40.584 89.7781C40.8866 89.8192 41.1584 89.9064 41.4046 90.0346C41.6508 90.1679 41.8509 90.3321 42.015 90.5372C42.1791 90.7373 42.2971 90.9783 42.3638 91.245C42.4356 91.5169 42.451 91.8041 42.4048 92.1221M41.4098 91.9939C41.4354 91.8246 41.4251 91.6605 41.3944 91.5015C41.3585 91.3476 41.3021 91.2091 41.22 91.0912C41.1328 90.9732 41.0302 90.8706 40.902 90.7937C40.7738 90.7167 40.6302 90.6603 40.466 90.6398C40.3019 90.6142 40.148 90.6244 40.0096 90.6706C39.8659 90.7116 39.7377 90.7783 39.6249 90.8706C39.512 90.9629 39.4197 91.0809 39.3479 91.2194C39.2761 91.3579 39.2299 91.5117 39.2043 91.6861C39.1786 91.8656 39.1838 92.0298 39.2197 92.1888C39.2556 92.3478 39.312 92.4811 39.3941 92.6042C39.4762 92.7273 39.5787 92.8248 39.707 92.9068C39.8301 92.9838 39.9737 93.035 40.1378 93.0607C40.3019 93.0812 40.4558 93.071 40.5943 93.0299C40.7379 92.9889 40.8661 92.9171 40.9789 92.8248C41.0918 92.7273 41.1892 92.6093 41.261 92.4709C41.3379 92.3272 41.3893 92.1682 41.4098 91.9887" fill="#522202"/>
<path d="M44.8359 94.0248L44.2768 90.0959L45.2001 89.9626L45.4052 91.3885C45.4565 91.3833 45.5078 91.3731 45.5539 91.3679C45.6052 91.3679 45.6514 91.3577 45.6976 91.3577L46.6721 89.7523L47.6825 89.6087L46.6311 91.45C46.8055 91.5064 46.9696 91.5936 47.1286 91.7013C47.2876 91.809 47.4312 91.9475 47.5697 92.1168C47.7133 92.286 47.8364 92.4912 47.9595 92.722C48.0774 92.9579 48.1852 93.2298 48.2929 93.5324L47.2824 93.676C47.185 93.3836 47.0773 93.1374 46.9696 92.9272C46.8567 92.722 46.7285 92.5579 46.59 92.4348C46.4464 92.3168 46.2926 92.2347 46.1131 92.1937C45.9387 92.1527 45.7386 92.1527 45.5232 92.1937L45.7643 93.8965L44.8411 94.0299L44.8359 94.0248Z" fill="#522202"/>
<path d="M53.6066 89.3575C53.7348 89.6447 53.8015 89.932 53.8118 90.2089C53.822 90.4859 53.7759 90.7526 53.6784 90.9988C53.581 91.245 53.4322 91.4656 53.2373 91.6605C53.0424 91.8605 52.8065 92.0195 52.5244 92.1426C52.2474 92.2657 51.9653 92.3324 51.6935 92.3477C51.4165 92.358 51.1549 92.3221 50.9036 92.2298C50.6574 92.1374 50.4318 91.9938 50.2266 91.7989C50.0215 91.604 49.8624 91.363 49.7342 91.0757C49.606 90.7834 49.5393 90.5013 49.529 90.2243C49.5239 89.9474 49.5701 89.6909 49.6675 89.4498C49.765 89.2088 49.9188 88.9934 50.1137 88.7985C50.3138 88.6036 50.5497 88.4446 50.8267 88.3215C51.1036 88.1984 51.3806 88.1266 51.6576 88.1112C51.9345 88.0958 52.1961 88.1317 52.4423 88.2138C52.6885 88.301 52.9142 88.4394 53.1142 88.6343C53.3143 88.8241 53.4784 89.0652 53.6066 89.3575ZM52.6936 89.7679C52.6218 89.6089 52.5295 89.4755 52.4218 89.3627C52.3141 89.2498 52.191 89.1626 52.0576 89.1011C51.9243 89.0447 51.7858 89.0139 51.632 89.0139C51.4832 89.0139 51.3293 89.0447 51.1806 89.1113C51.0319 89.178 50.9036 89.2652 50.8062 89.378C50.7087 89.4909 50.6318 89.614 50.5856 89.7525C50.5395 89.8909 50.5241 90.0397 50.5343 90.1987C50.5497 90.3577 50.5856 90.5167 50.6574 90.6705C50.7344 90.8347 50.8216 90.9783 50.9344 91.0911C51.0473 91.2091 51.1703 91.2963 51.3037 91.3527C51.437 91.4143 51.5755 91.445 51.7242 91.445C51.873 91.445 52.0217 91.4143 52.1705 91.3476C52.3192 91.2809 52.4474 91.1886 52.5449 91.0809C52.6423 90.968 52.7141 90.8449 52.7603 90.7013C52.8065 90.5628 52.827 90.409 52.8167 90.25C52.8013 90.091 52.7603 89.9268 52.6885 89.7627" fill="#522202"/>
<path d="M57.0739 89.3627L56.2994 90.0089L54.9248 85.9878L55.6582 85.3723L59.387 87.4393L58.5972 88.0958L56.1455 86.6905L57.0739 89.3627Z" fill="#522202"/>
<path d="M61.2744 85.2183L60.6846 86.0543L58.3868 82.4281L58.9151 81.6844L63.0901 82.6641L62.4849 83.5155L61.6745 83.3103L60.8026 84.5362L61.2744 85.2183ZM60.3307 83.8694L60.8949 83.0693L59.5049 82.6795L60.3307 83.8694Z" fill="#522202"/>
<path d="M64.3006 80.1611L65.0392 80.4227L64.7828 81.151L63.2851 80.6176L63.5107 79.9867L60.9206 77.8223L61.2232 76.9606L64.5929 76.9196L64.8238 76.2682L66.3215 76.7965L66.065 77.5248L65.3264 77.2632L64.3006 80.1662V80.1611ZM63.8287 79.0738L64.2596 77.8633L62.0798 77.771L63.8338 79.0738H63.8287Z" fill="#522202"/>
<path d="M57.0635 67.0258C57.0532 66.6001 56.966 66.1898 56.7198 65.8256C55.4632 64.6562 54.2579 64.687 52.7141 64.9845C50.6061 65.3896 48.457 64.5382 46.2874 64.7075C46.308 64.2305 46.3285 63.7535 46.3644 63.2662C46.4926 61.5993 45.9181 60.1273 46.2054 58.4398C46.2259 58.3219 46.1643 58.2295 46.072 58.1629C46.0258 57.9423 45.7386 57.7885 45.5232 57.9885C44.282 59.1425 42.1637 58.3783 40.6712 58.6553C39.4659 58.8758 38.4913 59.2194 37.5014 59.9016C36.7577 60.4094 36.0704 60.953 35.4857 61.6403C34.8548 62.384 34.2137 62.6764 33.4598 63.3432C31.2543 65.3025 30.6132 68.2414 30.7363 70.3648C30.8338 72.0676 29.9003 73.2627 29.6797 74.6321C29.3155 76.8581 30.1259 77.4326 30.249 78.8841C30.2798 79.4995 30.644 79.9355 31.2902 80.2176C32.4083 80.71 34.1214 80.3715 35.137 79.956C35.0498 80.2279 34.9575 80.5048 34.8395 80.7972C34.2702 82.2384 34.783 83.3771 36.2551 83.8438C37.0911 84.1054 37.7323 84.0439 38.5478 83.7412C39.8762 83.2591 41.0763 82.8898 42.4766 82.618C45.0103 82.1205 47.0824 81.1049 49.2161 79.6483C51.3446 78.1968 52.1191 75.822 53.5091 73.7961C54.2835 72.6677 55.2632 71.7804 55.9967 70.5956C56.9096 69.1236 56.9506 68.1747 57.0532 67.0207M50.4932 65.6102C51.1497 65.6923 51.8524 65.7846 52.5141 65.6769C52.9603 65.6051 53.3808 65.3486 53.8322 65.2871C54.6067 65.1742 55.3863 65.4204 56.0582 65.8307C56.1813 66.2513 56.0325 66.7027 55.7556 67.0309C54.7913 68.1901 53.9656 69.6159 53.0782 70.8469C51.678 72.7908 49.8367 74.3962 48.5031 76.3606C46.8413 78.802 44.6718 80.3971 41.7226 80.8792C40.4609 81.0844 39.0402 81.3973 37.7733 81.4024C37.1373 81.4024 36.25 82.1102 35.9576 80.669C35.9217 80.4792 35.9679 80.2432 36.0294 80.0073C36.8142 77.9198 36.4602 75.7195 37.2911 73.6217C38.2297 71.2418 39.712 68.6209 41.856 67.1643C44.5487 65.3435 47.303 65.2101 50.4932 65.6102ZM45.4104 61.6916C45.5797 62.4302 45.7078 63.1226 45.6155 64.1484C45.595 64.3792 45.5694 64.5998 45.5489 64.8049C45.513 64.8152 45.4719 64.8152 45.4309 64.8203C44.8821 64.9434 44.3487 65.1127 43.8358 65.323C44.4769 64.1895 45.1386 62.9687 45.4104 61.6865M31.3261 78.7302C31.3261 78.7302 31.3056 78.6994 31.3005 78.684C31.0543 78.007 29.9977 76.14 30.7055 74.8116C32.3776 71.6778 31.4339 69.9596 32.0801 67.9593C32.593 66.3795 33.3418 65.0716 34.5317 63.9997C36.2961 62.4097 37.5937 60.6145 39.8556 59.6195C41.3738 58.9527 42.6356 59.2759 44.2153 59.2348C44.2717 59.2348 44.323 59.2348 44.3795 59.2297C43.1177 59.8298 41.3585 59.9324 40.1993 60.4248C38.1528 61.2813 36.3679 63.2765 34.7523 64.7177C32.9007 66.3693 33.5778 67.6772 32.9674 69.9186C32.6699 71.0008 31.9313 72.8164 31.5877 73.8679C31.3312 74.6578 31.5877 75.622 31.362 76.4016C31.2595 76.7504 31.7518 76.7401 31.9672 76.4478C32.3929 75.8785 32.1108 75.104 32.2185 74.4218C32.3775 73.4217 33.3367 71.8368 33.6547 70.8572C34.0342 69.6775 34.0753 68.6055 34.3728 67.431C34.778 65.7846 35.7473 65.0922 36.8449 63.9381C38.4554 62.2456 40.1839 61.3275 42.3843 60.6863C42.8664 60.5479 43.5229 60.3837 44.1384 60.1427C43.5742 60.6043 42.9997 61.0402 42.3637 61.4095C40.8866 62.2661 39.2812 62.7585 37.9887 63.9022C34.5009 66.9899 35.1882 70.2981 33.2495 73.2678C33.0546 73.5704 33.1418 73.8782 33.6855 73.2781C36.1423 70.5648 35.4037 65.4409 40.584 63.1996C41.579 62.7687 43.051 62.1276 44.1538 61.2351C43.3485 62.1789 42.2971 62.7944 41.2815 63.4714C40.4814 63.9997 39.5684 64.6254 38.9068 65.3435C38.122 66.1949 37.6553 67.3079 37.0142 68.2619C36.9475 68.3593 37.1219 68.4773 37.1937 68.385C38.0862 67.1745 38.9683 66.1795 40.1685 65.2665C41.1635 64.5075 42.2355 63.8868 43.2613 63.1842C43.5537 62.9841 43.8717 62.7277 44.1948 62.4353C43.7794 63.4252 43.369 64.41 42.8612 65.3743C42.7484 65.5948 42.6151 65.8051 42.4868 66.0154C39.5941 67.7233 37.3938 70.77 36.25 73.8063C35.9217 74.6783 35.773 75.6682 35.7217 76.5914C35.7217 76.6273 35.7166 76.6632 35.7114 76.6991C35.4447 76.9863 35.1472 77.2633 34.7369 77.5198C34.5676 77.6275 34.7574 77.8685 34.9164 77.7659C35.1985 77.5813 35.4447 77.3966 35.6704 77.2017C35.6345 77.6531 35.5781 78.0891 35.5063 78.4943C34.6138 78.9456 31.798 80.2484 31.3312 78.7353M54.7554 71.0264C54.0938 71.9702 53.1706 72.7139 52.5705 73.6935C51.3549 75.6836 50.565 77.8377 48.5185 79.1713C47.4517 79.8637 46.2157 80.6946 45.036 81.1767C43.7999 81.6794 42.297 81.8076 40.9994 82.0384C39.7479 82.2641 38.6247 82.9001 37.3527 82.9257C36.5372 82.9462 35.6242 83.0796 35.5165 81.8999C35.5165 81.8691 35.5217 81.8332 35.5217 81.7973C35.7166 82.1153 36.0346 82.341 36.5577 82.3718C37.1065 82.4026 37.7835 82.1051 38.3169 82.0128C39.2248 81.8538 40.1378 81.7871 41.0507 81.6691C42.4407 81.4896 43.7383 81.305 44.9642 80.6177C47.621 79.1149 49.0212 76.7401 50.9343 74.4577C51.8883 73.3242 52.7449 72.083 53.6219 70.8931C54.3657 69.8878 55.5145 68.8671 56.1402 67.7951C55.8428 68.9338 55.4735 70.0211 54.7606 71.0315M37.4604 74.3192C37.2348 75.1963 37.2553 76.1452 37.0552 77.0633C36.8962 77.7865 36.5628 78.6379 36.6141 79.3918C36.7065 80.7356 37.64 80.8946 38.6863 80.4741C40.743 79.6585 42.8766 79.6842 44.6667 78.5096C46.4105 77.3607 47.4671 76.6119 48.7032 75.1707C51.2985 72.1292 54.1041 70.2878 53.8014 67.0873C53.663 65.5999 52.4935 66.0154 51.2882 65.9436C45.4873 65.6102 38.9786 68.4927 37.4604 74.3244M40.2557 70.4417C40.307 70.3802 40.3685 70.334 40.425 70.2725C40.9738 70.0211 41.656 69.9596 42.1278 70.1904C42.6356 70.4366 42.6715 70.9136 42.5022 71.4829C41.9483 71.6111 41.4508 71.8932 41.179 72.2882C41.0354 72.1702 40.8712 72.0574 40.6558 71.9702C40.2352 71.7958 39.6351 71.8266 39.1786 72.0215C39.4761 71.4726 39.83 70.9444 40.2557 70.4417ZM46.4105 68.7799C47.2055 68.4465 48.375 68.5594 48.934 69.0261C49.488 69.4877 49.2571 70.1391 49.1238 70.6161C48.6673 70.5699 48.139 70.6777 47.58 70.9957C47.4261 70.4622 47.0414 69.9596 46.6464 69.7339C46.4926 69.6518 46.3541 69.6006 46.2054 69.5493C46.3695 69.3236 46.4567 69.0466 46.4003 68.7748M46.7695 72.1138C46.7593 72.1394 46.7695 72.1651 46.7695 72.1958C46.1335 72.0317 45.318 72.1548 44.9231 72.719C44.7385 72.1548 44.3743 71.7188 43.9384 71.5496C43.7332 71.4726 43.5178 71.4367 43.2972 71.4214C43.4768 70.9957 43.4613 70.652 43.3229 70.3802C46.0156 68.9235 47.226 71.1239 46.7747 72.1138M43.5383 72.2676C44.123 72.6523 44.4102 73.2678 44.3795 74.0833C43.7845 74.0782 43.0716 74.3039 42.651 74.8219C42.4407 74.3398 42.0663 73.9346 41.6611 73.7397C41.7842 73.4473 41.7534 72.8831 41.3225 72.4318C41.8508 71.9702 42.8356 71.8112 43.5332 72.2728M38.876 72.6113C39.7223 71.7035 41.1738 72.5446 41.0559 73.5961C40.3122 73.5396 39.5069 73.873 39.3581 74.4988C39.1068 74.309 38.7119 74.1192 38.3067 74.2115C38.4452 73.6627 38.6401 73.1293 38.876 72.6113ZM38.0656 75.4733C38.1015 75.1758 38.158 74.8886 38.2195 74.5962C38.358 74.55 38.558 74.5654 38.994 74.8629C39.2761 75.0578 39.4454 75.4784 39.5172 75.8579C38.9376 75.822 38.3683 75.9349 37.9682 76.1708C37.999 75.9349 38.0348 75.7092 38.0656 75.4733ZM40.8917 78.5507C40.8507 78.6994 40.8251 78.8123 40.7994 78.9097C40.3019 78.9713 39.8044 79.0482 39.312 79.2175C39.0658 79.3046 38.2657 79.8996 37.9989 79.8329C37.1783 79.6175 37.5117 78.7764 37.6091 78.3045C37.7015 77.848 37.7836 77.3966 37.8554 76.9453C39.4146 75.3553 41.2405 77.2941 40.8917 78.5507ZM40.0301 75.9451C40.1121 75.5348 39.7839 75.0424 39.6146 74.7501C39.6967 74.4629 40.902 73.555 41.8611 74.5193C42.2663 74.9296 42.3791 75.4784 42.3073 75.9913C41.8098 76.0939 41.4098 76.4375 41.1584 76.8171C40.8815 76.4016 40.4917 76.0785 40.0352 75.9451M42.1688 78.6892C41.9585 78.7456 41.7431 78.7764 41.5277 78.8123C41.6764 78.2737 41.5995 77.6634 41.3379 77.1351C41.7329 76.6427 42.574 76.258 43.287 76.8786C43.605 77.1556 43.7999 77.5403 43.8101 77.9301C43.3075 78.2532 42.7843 78.5353 42.1637 78.6892M44.8564 77.2171C44.7333 77.3043 44.6102 77.3915 44.4872 77.4736C44.3025 76.9043 43.7742 76.3811 43.4665 76.2016C43.2254 76.0631 42.9946 76.0016 42.7741 75.9759C42.8408 75.6836 42.8253 75.3861 42.7535 75.104C42.8715 75.0578 42.969 74.986 43.0972 74.9193C43.5845 74.6578 44.1999 74.6065 44.6975 74.8886C45.5694 75.381 45.636 75.9349 45.6925 76.6119C45.4052 76.8273 45.1231 77.0325 44.8564 77.2171ZM46.2772 76.1708C46.2208 75.5297 45.7643 74.709 45.195 74.2936C45.1283 74.2423 45.0411 74.2013 44.9436 74.1705C45.0616 73.7499 45.0616 73.3345 44.9795 72.9549C45.2155 72.7087 45.8258 72.2266 46.7593 72.7395C47.4261 73.1037 47.862 74.2833 47.7441 74.8629C47.7338 74.9091 47.7595 74.9296 47.7851 74.9399C47.2774 75.3758 46.7696 75.7861 46.2772 76.1708ZM50.1034 72.7857C49.5289 73.3601 48.9186 73.9346 48.298 74.4885C48.4724 73.8474 47.9903 72.8216 47.2107 72.3754C47.5954 72.0881 47.6928 71.6675 47.6312 71.2418C48.6776 70.8777 50.3855 71.5547 50.1034 72.7857ZM49.8572 67.8413H49.8675V67.6618C50.4727 67.1848 51.5241 67.5182 51.837 67.9952C52.0986 68.3901 51.7909 69.262 51.3395 69.5903C51.0164 69.5493 50.5445 69.5544 50.1701 69.6929C50.1803 69.262 49.9906 68.8261 49.5136 68.5183C49.7906 68.3029 49.8828 68.067 49.8521 67.8362M50.7907 72.0727C50.7394 71.5598 50.3445 71.0316 49.7341 70.77C49.9085 70.5699 50.047 70.3186 50.1188 70.0519C51.1805 69.7852 51.8114 70.1545 52.0217 70.6212C51.6627 71.0931 51.2472 71.5855 50.7856 72.0779M49.5854 66.6514C51.2677 66.6668 51.7139 66.7181 52.3294 66.8771C53.2321 67.1079 53.4629 68.0619 53.0936 68.8979C52.9295 69.2774 52.6833 69.6877 52.3858 70.1186C52.2781 69.9596 52.0934 69.8365 51.8985 69.7493C52.5243 69.1492 52.7141 68.226 52.1807 67.5284C51.9806 67.2669 51.6062 67.1438 51.0676 67.0412C50.6676 66.9642 49.9598 67.0566 49.6674 67.4053C49.6674 67.4053 49.6674 67.4105 49.6674 67.4156C49.5392 67.2463 49.37 67.0873 49.1853 66.9642C49.0315 66.8617 48.8263 66.7745 48.5904 66.7027C48.9289 66.677 49.2674 66.6514 49.5854 66.6565M46.8978 66.9386C46.8978 66.9386 46.9132 66.9386 46.9286 66.9386C47.8928 66.7078 48.4673 67.154 48.8109 67.3438C49.0623 67.4823 49.1443 67.6669 49.1135 67.8721C49.093 68.0003 49.011 68.1183 48.934 68.2414C47.98 67.9234 47.0517 68.1696 46.3438 68.585C46.2361 68.3542 46.0104 68.1439 45.6206 68.0054C45.1847 67.8516 44.6513 67.7849 44.1384 67.8054C45.0309 67.431 45.9694 67.1386 46.8978 66.9437M43.1331 68.2619C43.6921 68.1131 44.5179 68.1644 44.9744 68.3645C45.6719 68.6671 45.754 69.0774 45.6668 69.4057C44.6 69.2364 43.7434 69.7493 43.1946 70.1955C43.0356 70.0109 42.8151 69.857 42.5432 69.739C42.1278 69.5595 41.5688 69.5493 41.0405 69.6672C41.6457 69.1338 42.3637 68.6671 43.1382 68.2619" fill="url(#paint0_linear_80_291)"/>
<path d="M42.7998 88.3469C33.4034 88.0546 25.9921 80.3508 25.9921 71.0211C25.9921 70.8416 25.992 70.657 26.0023 70.4775C26.2895 61.0862 33.9984 53.6697 43.3332 53.6697C43.5127 53.6697 43.6974 53.6697 43.8769 53.68C53.2681 53.9723 60.6846 61.6761 60.6846 71.0109C60.6846 71.1904 60.6847 71.375 60.6744 71.5546C60.382 80.9458 52.6783 88.3623 43.3435 88.3623C43.1639 88.3623 42.9793 88.3623 42.7998 88.3521V88.3469ZM26.7152 71.0211C26.7152 79.961 33.8189 87.3416 42.8203 87.6237C42.9947 87.6237 43.1691 87.6289 43.3435 87.6289C52.2833 87.6289 59.664 80.5201 59.9461 71.5289C59.9461 71.3545 59.9512 71.1801 59.9512 71.0058C59.9512 62.0659 52.8424 54.6801 43.8461 54.4032C43.6666 54.4032 43.4922 54.3929 43.3229 54.3929C34.3831 54.3929 26.9973 61.4966 26.7203 70.498C26.7203 70.6775 26.7101 70.8468 26.7101 71.0211H26.7152Z" fill="url(#paint1_linear_80_291)"/>
<path d="M42.5022 97.9897C27.8845 97.5384 16.3442 85.5467 16.3442 71.0265C16.3442 70.7444 16.3494 70.4572 16.3596 70.1751C16.8161 55.5574 28.8026 44.0172 43.3228 44.0172C43.6049 44.0172 43.8922 44.0172 44.1743 44.0325C58.7919 44.4839 70.3322 56.4755 70.3322 70.9957C70.3322 71.2778 70.3322 71.5599 70.3168 71.842C69.8654 86.4597 57.8738 98 43.3536 98C43.0715 98 42.7894 98 42.5073 97.9897H42.5022ZM17.6316 70.2161C17.6214 70.488 17.6214 70.7598 17.6214 71.0265C17.6214 84.8595 28.6179 96.2869 42.5432 96.7177C42.815 96.728 43.0818 96.7331 43.3536 96.7331C57.1866 96.7331 68.6191 85.7314 69.0448 71.8061C69.0551 71.5343 69.0602 71.2676 69.0602 70.9957C69.0602 57.1577 58.0585 45.7302 44.1332 45.2994C43.8614 45.2891 43.5947 45.284 43.3228 45.284C29.4899 45.284 18.0625 56.2806 17.6316 70.211V70.2161Z" fill="url(#paint2_linear_80_291)"/>
<mask id="mask0_80_291" style="mask-type:luminance" maskUnits="userSpaceOnUse" x="0" y="0" width="81" height="51">
<path d="M80.3081 0H0.634033V50.7002H80.3081V0Z" fill="white"/>
</mask>
<g mask="url(#mask0_80_291)">
<path d="M43.0508 0.0154901C43.5432 0.0154901 43.9484 -0.389702 43.9484 -0.882087C43.9484 -1.37447 43.5432 -1.77966 43.0508 -1.77966C42.5584 -1.77966 42.1532 -1.37447 42.1532 -0.882087C42.1532 -0.389702 42.5533 0.0154901 43.0508 0.0154901Z" fill="url(#paint3_linear_80_291)"/>
<path d="M43.0508 2.79534C43.5432 2.79534 43.9484 2.39014 43.9484 1.89776C43.9484 1.40537 43.5432 1.00018 43.0508 1.00018C42.5584 1.00018 42.1532 1.40537 42.1532 1.89776C42.1532 2.39014 42.5533 2.79534 43.0508 2.79534Z" fill="url(#paint4_linear_80_291)"/>
<path d="M43.0508 5.57009C43.5432 5.57009 43.9484 5.17002 43.9484 4.67251C43.9484 4.175 43.5432 3.77493 43.0508 3.77493C42.5584 3.77493 42.1532 4.18012 42.1532 4.67251C42.1532 5.16489 42.5533 5.57009 43.0508 5.57009Z" fill="url(#paint5_linear_80_291)"/>
<path d="M43.0508 8.35015C43.5432 8.35015 43.9484 7.94495 43.9484 7.45257C43.9484 6.96018 43.5432 6.55499 43.0508 6.55499C42.5584 6.55499 42.1532 6.96018 42.1532 7.45257C42.1532 7.94495 42.5533 8.35015 43.0508 8.35015Z" fill="url(#paint6_linear_80_291)"/>
<path d="M43.0508 11.125C43.5432 11.125 43.9484 10.7198 43.9484 10.2274C43.9484 9.73503 43.5432 9.32983 43.0508 9.32983C42.5584 9.32983 42.1532 9.73503 42.1532 10.2274C42.1532 10.7198 42.5533 11.125 43.0508 11.125Z" fill="url(#paint7_linear_80_291)"/>
<path d="M43.0508 13.9049C43.5432 13.9049 43.9484 13.4997 43.9484 13.0073C43.9484 12.515 43.5432 12.1098 43.0508 12.1098C42.5584 12.1098 42.1532 12.5098 42.1532 13.0073C42.1532 13.5049 42.5533 13.9049 43.0508 13.9049Z" fill="url(#paint8_linear_80_291)"/>
<path d="M43.0508 16.6796C43.5432 16.6796 43.9484 16.2744 43.9484 15.782C43.9484 15.2897 43.5432 14.8845 43.0508 14.8845C42.5584 14.8845 42.1532 15.2897 42.1532 15.782C42.1532 16.2744 42.5533 16.6796 43.0508 16.6796Z" fill="url(#paint9_linear_80_291)"/>
<path d="M43.0508 19.4596C43.5432 19.4596 43.9484 19.0544 43.9484 18.562C43.9484 18.0696 43.5432 17.6644 43.0508 17.6644C42.5584 17.6644 42.1532 18.0696 42.1532 18.562C42.1532 19.0544 42.5533 19.4596 43.0508 19.4596Z" fill="url(#paint10_linear_80_291)"/>
<path d="M43.0508 22.2344C43.5432 22.2344 43.9484 21.8292 43.9484 21.3368C43.9484 20.8444 43.5432 20.4392 43.0508 20.4392C42.5584 20.4392 42.1532 20.8444 42.1532 21.3368C42.1532 21.8292 42.5533 22.2344 43.0508 22.2344Z" fill="url(#paint11_linear_80_291)"/>
<path d="M43.0508 25.0143C43.5432 25.0143 43.9484 24.6143 43.9484 24.1168C43.9484 23.6192 43.5432 23.2192 43.0508 23.2192C42.5584 23.2192 42.1532 23.6244 42.1532 24.1168C42.1532 24.6091 42.5533 25.0143 43.0508 25.0143Z" fill="url(#paint12_linear_80_291)"/>
<path d="M43.0508 27.789C43.5432 27.789 43.9484 27.389 43.9484 26.8914C43.9484 26.3939 43.5432 25.9939 43.0508 25.9939C42.5584 25.9939 42.1532 26.3991 42.1532 26.8914C42.1532 27.3838 42.5533 27.789 43.0508 27.789Z" fill="url(#paint13_linear_80_291)"/>
<path d="M51.2059 27.9378C50.852 25.9734 48.4004 26.5427 47.1438 27.0504C45.7231 27.6249 44.2459 28.4455 43.0355 29.456C40.9428 27.7685 35.8138 24.6296 34.8855 27.9378C33.9469 31.2767 37.7218 32.3744 40.6095 32.2461C40.4146 32.441 40.2452 32.6616 40.1068 32.9026C39.1425 33.313 38.0757 33.5797 37.1166 33.9387C36.3267 34.2362 36.6652 35.5184 37.4705 35.2158C38.1783 34.9491 38.9169 34.7286 39.6452 34.4721C39.6452 34.5183 39.6401 34.5644 39.6401 34.6106C39.6401 34.9235 39.6862 35.2261 39.7683 35.5133C38.2245 35.6672 37.0704 35.9236 36.9217 36.2519C36.4857 37.1802 36.5575 43.5556 36.5575 43.5556C37.132 43.5556 37.8449 43.0889 37.8449 42.5144L37.968 38.8728H38.3167L38.4398 42.5144C38.4398 43.0889 38.7835 43.5556 39.3631 43.5556C39.9427 43.5556 40.2863 43.0889 40.2863 42.5144L40.4094 38.8728H40.7582L40.8812 42.5144C40.8812 43.0889 41.2249 43.5556 41.8045 43.5556C42.3841 43.5556 42.7277 43.0889 42.7277 42.5144L42.8508 38.8728H43.1996L43.3227 42.5144C43.3227 43.0889 43.6663 43.5556 44.2459 43.5556C44.8255 43.5556 45.1691 43.0889 45.1691 42.5144L45.2922 38.8728H45.641L45.7641 42.5144C45.7641 43.0889 46.1077 43.5556 46.6873 43.5556C47.2669 43.5556 47.6105 43.0889 47.6105 42.5144L47.7336 38.8728H48.0824L48.2055 42.5144C48.2055 43.0889 48.9133 43.5556 49.4929 43.5556C49.4929 43.5556 49.6262 36.9751 49.1287 36.2519C48.8569 35.857 47.7388 35.6005 46.2924 35.4672C46.3642 35.1902 46.4052 34.9081 46.4052 34.6106C46.4052 34.5644 46.4052 34.5234 46.4001 34.4772C47.1694 34.7388 47.9593 34.9491 48.662 35.2158C49.4621 35.5184 49.8057 34.2362 49.0158 33.9387C47.9798 33.5489 46.8976 33.2412 45.882 32.8052C45.7589 32.6154 45.6205 32.4359 45.4615 32.2718C48.3645 32.4667 51.8574 31.3229 51.247 27.9378H51.2059ZM49.9288 28.2917C50.7443 31.1947 45.5999 31.1793 43.9689 30.6767C43.9484 30.6715 43.9279 30.6664 43.9022 30.6613C43.892 30.6151 43.8766 30.569 43.8664 30.5177C45.3845 29.3585 49.4877 26.7427 49.9237 28.2917H49.9288ZM36.1626 28.2917C36.4395 26.753 40.6915 29.3944 42.2199 30.5279C42.2096 30.5741 42.1994 30.6151 42.1892 30.6613C42.1686 30.6613 42.143 30.6664 42.1225 30.6767C40.3017 31.2409 35.6394 31.2101 36.1626 28.2917ZM45.5948 34.6106C45.5948 34.8927 45.5384 35.1543 45.4563 35.4056C43.9074 35.3133 42.1173 35.3338 40.5735 35.4466C40.4812 35.1851 40.4248 34.903 40.4248 34.6106C40.4248 34.4567 40.4453 34.308 40.471 34.1644C40.9223 33.9849 41.3582 33.7797 41.7737 33.5386C42.3584 33.1899 42.7687 32.7077 43.0559 32.1487C43.3175 32.6359 43.6714 33.0668 44.1741 33.4361C44.5844 33.7387 45.0614 33.9746 45.5589 34.1798C45.5845 34.3234 45.6051 34.4619 45.6051 34.6106H45.5948Z" fill="url(#paint14_linear_80_291)"/>
</g>
<defs>
<linearGradient id="paint0_linear_80_291" x1="5.917" y1="81.7768" x2="87.8324" y2="56.2087" gradientUnits="userSpaceOnUse">
<stop offset="0.28" stop-color="#B5813D"/>
<stop offset="0.29" stop-color="#C1914E"/>
<stop offset="0.3" stop-color="#D4AB68"/>
<stop offset="0.31" stop-color="#E4C17E"/>
<stop offset="0.33" stop-color="#F0D18F"/>
<stop offset="0.35" stop-color="#F8DD9B"/>
<stop offset="0.38" stop-color="#FDE4A2"/>
<stop offset="0.46" stop-color="#FFE6A4"/>
<stop offset="0.47" stop-color="#FFF9C8"/>
<stop offset="0.48" stop-color="#F8EEBB"/>
<stop offset="0.49" stop-color="#E1C991"/>
<stop offset="0.51" stop-color="#CDAB6E"/>
<stop offset="0.53" stop-color="#BF9352"/>
<stop offset="0.55" stop-color="#B4823F"/>
<stop offset="0.56" stop-color="#AE7833"/>
<stop offset="0.58" stop-color="#AC7530"/>
<stop offset="0.61" stop-color="#CFA561"/>
<stop offset="0.64" stop-color="#F1D491"/>
<stop offset="0.65" stop-color="#FFE6A4"/>
<stop offset="0.66" stop-color="#F9DE9C"/>
<stop offset="0.67" stop-color="#EACA88"/>
<stop offset="0.68" stop-color="#D2AA66"/>
<stop offset="0.69" stop-color="#B17D39"/>
<stop offset="0.7" stop-color="#A06621"/>
</linearGradient>
<linearGradient id="paint1_linear_80_291" x1="6.17872" y1="82.6076" x2="88.0889" y2="57.0395" gradientUnits="userSpaceOnUse">
<stop offset="0.28" stop-color="#B5813D"/>
<stop offset="0.29" stop-color="#C1914E"/>
<stop offset="0.3" stop-color="#D4AB68"/>
<stop offset="0.31" stop-color="#E4C17E"/>
<stop offset="0.33" stop-color="#F0D18F"/>
<stop offset="0.35" stop-color="#F8DD9B"/>
<stop offset="0.38" stop-color="#FDE4A2"/>
<stop offset="0.46" stop-color="#FFE6A4"/>
<stop offset="0.47" stop-color="#FFF9C8"/>
<stop offset="0.48" stop-color="#F8EEBB"/>
<stop offset="0.49" stop-color="#E1C991"/>
<stop offset="0.51" stop-color="#CDAB6E"/>
<stop offset="0.53" stop-color="#BF9352"/>
<stop offset="0.55" stop-color="#B4823F"/>
<stop offset="0.56" stop-color="#AE7833"/>
<stop offset="0.58" stop-color="#AC7530"/>
<stop offset="0.61" stop-color="#CFA561"/>
<stop offset="0.64" stop-color="#F1D491"/>
<stop offset="0.65" stop-color="#FFE6A4"/>
<stop offset="0.66" stop-color="#F9DE9C"/>
<stop offset="0.67" stop-color="#EACA88"/>
<stop offset="0.68" stop-color="#D2AA66"/>
<stop offset="0.69" stop-color="#B17D39"/>
<stop offset="0.7" stop-color="#A06621"/>
</linearGradient>
<linearGradient id="paint2_linear_80_291" x1="6.17855" y1="82.6078" x2="88.0888" y2="57.0397" gradientUnits="userSpaceOnUse">
<stop offset="0.28" stop-color="#B5813D"/>
<stop offset="0.29" stop-color="#C1914E"/>
<stop offset="0.3" stop-color="#D4AB68"/>
<stop offset="0.31" stop-color="#E4C17E"/>
<stop offset="0.33" stop-color="#F0D18F"/>
<stop offset="0.35" stop-color="#F8DD9B"/>
<stop offset="0.38" stop-color="#FDE4A2"/>
<stop offset="0.46" stop-color="#FFE6A4"/>
<stop offset="0.47" stop-color="#FFF9C8"/>
<stop offset="0.48" stop-color="#F8EEBB"/>
<stop offset="0.49" stop-color="#E1C991"/>
<stop offset="0.51" stop-color="#CDAB6E"/>
<stop offset="0.53" stop-color="#BF9352"/>
<stop offset="0.55" stop-color="#B4823F"/>
<stop offset="0.56" stop-color="#AE7833"/>
<stop offset="0.58" stop-color="#AC7530"/>
<stop offset="0.61" stop-color="#CFA561"/>
<stop offset="0.64" stop-color="#F1D491"/>
<stop offset="0.65" stop-color="#FFE6A4"/>
<stop offset="0.66" stop-color="#F9DE9C"/>
<stop offset="0.67" stop-color="#EACA88"/>
<stop offset="0.68" stop-color="#D2AA66"/>
<stop offset="0.69" stop-color="#B17D39"/>
<stop offset="0.7" stop-color="#A06621"/>
</linearGradient>
<linearGradient id="paint3_linear_80_291" x1="-525.725" y1="-0.882087" x2="-525.213" y2="-0.882087" gradientUnits="userSpaceOnUse">
<stop stop-color="#C9A566"/>
<stop offset="0.02" stop-color="#D1B070"/>
<stop offset="0.11" stop-color="#EFD894"/>
<stop offset="0.16" stop-color="#FBE8A3"/>
<stop offset="0.2" stop-color="#EAD28F"/>
<stop offset="0.25" stop-color="#D8B978"/>
<stop offset="0.29" stop-color="#CCAA6A"/>
<stop offset="0.33" stop-color="#C9A566"/>
<stop offset="0.7" stop-color="#FEE48F"/>
<stop offset="0.82" stop-color="#DDBD75"/>
<stop offset="0.92" stop-color="#C9A566"/>
<stop offset="0.98" stop-color="#B38B51"/>
</linearGradient>
<linearGradient id="paint4_linear_80_291" x1="-525.725" y1="1.89776" x2="-525.213" y2="1.89776" gradientUnits="userSpaceOnUse">
<stop stop-color="#C9A566"/>
<stop offset="0.02" stop-color="#D1B070"/>
<stop offset="0.11" stop-color="#EFD894"/>
<stop offset="0.16" stop-color="#FBE8A3"/>
<stop offset="0.2" stop-color="#EAD28F"/>
<stop offset="0.25" stop-color="#D8B978"/>
<stop offset="0.29" stop-color="#CCAA6A"/>
<stop offset="0.33" stop-color="#C9A566"/>
<stop offset="0.7" stop-color="#FEE48F"/>
<stop offset="0.82" stop-color="#DDBD75"/>
<stop offset="0.92" stop-color="#C9A566"/>
<stop offset="0.98" stop-color="#B38B51"/>
</linearGradient>
<linearGradient id="paint5_linear_80_291" x1="-525.725" y1="4.67251" x2="-525.213" y2="4.67251" gradientUnits="userSpaceOnUse">
<stop stop-color="#C9A566"/>
<stop offset="0.02" stop-color="#D1B070"/>
<stop offset="0.11" stop-color="#EFD894"/>
<stop offset="0.16" stop-color="#FBE8A3"/>
<stop offset="0.2" stop-color="#EAD28F"/>
<stop offset="0.25" stop-color="#D8B978"/>
<stop offset="0.29" stop-color="#CCAA6A"/>
<stop offset="0.33" stop-color="#C9A566"/>
<stop offset="0.7" stop-color="#FEE48F"/>
<stop offset="0.82" stop-color="#DDBD75"/>
<stop offset="0.92" stop-color="#C9A566"/>
<stop offset="0.98" stop-color="#B38B51"/>
</linearGradient>
<linearGradient id="paint6_linear_80_291" x1="-525.725" y1="7.45257" x2="-525.213" y2="7.45257" gradientUnits="userSpaceOnUse">
<stop stop-color="#C9A566"/>
<stop offset="0.02" stop-color="#D1B070"/>
<stop offset="0.11" stop-color="#EFD894"/>
<stop offset="0.16" stop-color="#FBE8A3"/>
<stop offset="0.2" stop-color="#EAD28F"/>
<stop offset="0.25" stop-color="#D8B978"/>
<stop offset="0.29" stop-color="#CCAA6A"/>
<stop offset="0.33" stop-color="#C9A566"/>
<stop offset="0.7" stop-color="#FEE48F"/>
<stop offset="0.82" stop-color="#DDBD75"/>
<stop offset="0.92" stop-color="#C9A566"/>
<stop offset="0.98" stop-color="#B38B51"/>
</linearGradient>
<linearGradient id="paint7_linear_80_291" x1="-525.725" y1="10.2274" x2="-525.213" y2="10.2274" gradientUnits="userSpaceOnUse">
<stop stop-color="#C9A566"/>
<stop offset="0.02" stop-color="#D1B070"/>
<stop offset="0.11" stop-color="#EFD894"/>
<stop offset="0.16" stop-color="#FBE8A3"/>
<stop offset="0.2" stop-color="#EAD28F"/>
<stop offset="0.25" stop-color="#D8B978"/>
<stop offset="0.29" stop-color="#CCAA6A"/>
<stop offset="0.33" stop-color="#C9A566"/>
<stop offset="0.7" stop-color="#FEE48F"/>
<stop offset="0.82" stop-color="#DDBD75"/>
<stop offset="0.92" stop-color="#C9A566"/>
<stop offset="0.98" stop-color="#B38B51"/>
</linearGradient>
<linearGradient id="paint8_linear_80_291" x1="-525.725" y1="13.0073" x2="-525.213" y2="13.0073" gradientUnits="userSpaceOnUse">
<stop stop-color="#C9A566"/>
<stop offset="0.02" stop-color="#D1B070"/>
<stop offset="0.11" stop-color="#EFD894"/>
<stop offset="0.16" stop-color="#FBE8A3"/>
<stop offset="0.2" stop-color="#EAD28F"/>
<stop offset="0.25" stop-color="#D8B978"/>
<stop offset="0.29" stop-color="#CCAA6A"/>
<stop offset="0.33" stop-color="#C9A566"/>
<stop offset="0.7" stop-color="#FEE48F"/>
<stop offset="0.82" stop-color="#DDBD75"/>
<stop offset="0.92" stop-color="#C9A566"/>
<stop offset="0.98" stop-color="#B38B51"/>
</linearGradient>
<linearGradient id="paint9_linear_80_291" x1="-525.725" y1="15.782" x2="-525.213" y2="15.782" gradientUnits="userSpaceOnUse">
<stop stop-color="#C9A566"/>
<stop offset="0.02" stop-color="#D1B070"/>
<stop offset="0.11" stop-color="#EFD894"/>
<stop offset="0.16" stop-color="#FBE8A3"/>
<stop offset="0.2" stop-color="#EAD28F"/>
<stop offset="0.25" stop-color="#D8B978"/>
<stop offset="0.29" stop-color="#CCAA6A"/>
<stop offset="0.33" stop-color="#C9A566"/>
<stop offset="0.7" stop-color="#FEE48F"/>
<stop offset="0.82" stop-color="#DDBD75"/>
<stop offset="0.92" stop-color="#C9A566"/>
<stop offset="0.98" stop-color="#B38B51"/>
</linearGradient>
<linearGradient id="paint10_linear_80_291" x1="-525.725" y1="18.562" x2="-525.213" y2="18.562" gradientUnits="userSpaceOnUse">
<stop stop-color="#C9A566"/>
<stop offset="0.02" stop-color="#D1B070"/>
<stop offset="0.11" stop-color="#EFD894"/>
<stop offset="0.16" stop-color="#FBE8A3"/>
<stop offset="0.2" stop-color="#EAD28F"/>
<stop offset="0.25" stop-color="#D8B978"/>
<stop offset="0.29" stop-color="#CCAA6A"/>
<stop offset="0.33" stop-color="#C9A566"/>
<stop offset="0.7" stop-color="#FEE48F"/>
<stop offset="0.82" stop-color="#DDBD75"/>
<stop offset="0.92" stop-color="#C9A566"/>
<stop offset="0.98" stop-color="#B38B51"/>
</linearGradient>
<linearGradient id="paint11_linear_80_291" x1="-525.725" y1="21.3368" x2="-525.213" y2="21.3368" gradientUnits="userSpaceOnUse">
<stop stop-color="#C9A566"/>
<stop offset="0.02" stop-color="#D1B070"/>
<stop offset="0.11" stop-color="#EFD894"/>
<stop offset="0.16" stop-color="#FBE8A3"/>
<stop offset="0.2" stop-color="#EAD28F"/>
<stop offset="0.25" stop-color="#D8B978"/>
<stop offset="0.29" stop-color="#CCAA6A"/>
<stop offset="0.33" stop-color="#C9A566"/>
<stop offset="0.7" stop-color="#FEE48F"/>
<stop offset="0.82" stop-color="#DDBD75"/>
<stop offset="0.92" stop-color="#C9A566"/>
<stop offset="0.98" stop-color="#B38B51"/>
</linearGradient>
<linearGradient id="paint12_linear_80_291" x1="-525.725" y1="24.1168" x2="-525.213" y2="24.1168" gradientUnits="userSpaceOnUse">
<stop stop-color="#C9A566"/>
<stop offset="0.02" stop-color="#D1B070"/>
<stop offset="0.11" stop-color="#EFD894"/>
<stop offset="0.16" stop-color="#FBE8A3"/>
<stop offset="0.2" stop-color="#EAD28F"/>
<stop offset="0.25" stop-color="#D8B978"/>
<stop offset="0.29" stop-color="#CCAA6A"/>
<stop offset="0.33" stop-color="#C9A566"/>
<stop offset="0.7" stop-color="#FEE48F"/>
<stop offset="0.82" stop-color="#DDBD75"/>
<stop offset="0.92" stop-color="#C9A566"/>
<stop offset="0.98" stop-color="#B38B51"/>
</linearGradient>
<linearGradient id="paint13_linear_80_291" x1="-525.725" y1="26.8914" x2="-525.213" y2="26.8914" gradientUnits="userSpaceOnUse">
<stop stop-color="#C9A566"/>
<stop offset="0.02" stop-color="#D1B070"/>
<stop offset="0.11" stop-color="#EFD894"/>
<stop offset="0.16" stop-color="#FBE8A3"/>
<stop offset="0.2" stop-color="#EAD28F"/>
<stop offset="0.25" stop-color="#D8B978"/>
<stop offset="0.29" stop-color="#CCAA6A"/>
<stop offset="0.33" stop-color="#C9A566"/>
<stop offset="0.7" stop-color="#FEE48F"/>
<stop offset="0.82" stop-color="#DDBD75"/>
<stop offset="0.92" stop-color="#C9A566"/>
<stop offset="0.98" stop-color="#B38B51"/>
</linearGradient>
<linearGradient id="paint14_linear_80_291" x1="16.5698" y1="35.0209" x2="75.4149" y2="35.0209" gradientUnits="userSpaceOnUse">
<stop stop-color="#C9A566"/>
<stop offset="0.02" stop-color="#D1B070"/>
<stop offset="0.11" stop-color="#EFD894"/>
<stop offset="0.16" stop-color="#FBE8A3"/>
<stop offset="0.2" stop-color="#EAD28F"/>
<stop offset="0.25" stop-color="#D8B978"/>
<stop offset="0.29" stop-color="#CCAA6A"/>
<stop offset="0.33" stop-color="#C9A566"/>
<stop offset="0.7" stop-color="#FEE48F"/>
<stop offset="0.82" stop-color="#DDBD75"/>
<stop offset="0.92" stop-color="#C9A566"/>
<stop offset="0.98" stop-color="#B38B51"/>
</linearGradient>
</defs>
</svg>
