<svg width="53" height="20" viewBox="0 0 53 15" fill="none" xmlns="http://www.w3.org/2000/svg">
        <path d="M47.3097 3.696V6.336H48.7497C49.827 6.336 50.6697 6.56533 51.2777 7.024C51.8857 7.472 52.1897 8.16533 52.1897 9.104C52.1897 9.75467 52.0403 10.2987 51.7417 10.736C51.443 11.1627 51.027 11.4827 50.4937 11.696C49.971 11.8987 49.3683 12 48.6857 12H45.4537V3.696H47.3097ZM48.5577 10.544C49.0697 10.544 49.4857 10.4373 49.8057 10.224C50.1257 10.0107 50.2857 9.664 50.2857 9.184C50.2857 8.704 50.1417 8.35733 49.8537 8.144C49.5657 7.92 49.1497 7.808 48.6057 7.808H47.3097V10.544H48.5577Z" fill="black"/>
        <path d="M37.1262 3.696H44.0542V5.2H41.4782V12H39.6382V5.2H37.1262V3.696Z" fill="black"/>
        <path d="M30.1222 3.696V9.44L33.8822 3.696H35.7062V12H33.8502V6.272L30.1382 12H28.2822V3.696H30.1222Z" fill="black"/>
        <path d="M19.1415 12V3.696H26.1975V12H24.3415V5.2H20.9975V12H19.1415Z" fill="black"/>
        <path d="M11.3832 14.992C10.8498 14.992 10.4018 14.9067 10.0392 14.736V13.072C10.3805 13.3173 10.8125 13.44 11.3352 13.44C11.6765 13.44 11.9645 13.3653 12.1992 13.216C12.4445 13.0773 12.6685 12.8427 12.8712 12.512L9.52716 3.696H11.5272L13.8472 10.144L16.1512 3.696H17.8792L14.8872 11.904C14.6098 12.6507 14.3058 13.248 13.9752 13.696C13.6552 14.1547 13.2872 14.4853 12.8712 14.688C12.4552 14.8907 11.9592 14.992 11.3832 14.992Z" fill="black"/>
        <path d="M9.60831 12H7.25631L3.60831 7.248H2.48831V12H0.552307V0.528H2.48831V5.568H3.62431L7.35231 0.528H9.43231L5.17631 6.256L9.60831 12Z" fill="black"/>
        </svg>