 <svg
          width="164"
          height="15"
          viewBox="0 0 164 15"
          fill="none"
          xmlns="http://www.w3.org/2000/svg"
        >
          <path
            d="M158.339 3.76001V6.56001H159.859C160.915 6.56001 161.742 6.77334 162.339 7.20001C162.936 7.61601 163.235 8.29868 163.235 9.24801C163.235 9.89868 163.086 10.432 162.787 10.848C162.488 11.264 162.078 11.5733 161.555 11.776C161.032 11.968 160.435 12.064 159.763 12.064H156.931V3.76001H158.339ZM159.763 10.864C160.371 10.864 160.862 10.7467 161.235 10.512C161.619 10.2667 161.811 9.87201 161.811 9.32801C161.811 8.77334 161.64 8.37334 161.299 8.12801C160.958 7.88268 160.478 7.76001 159.859 7.76001H158.339V10.864H159.763Z"
            fill="white"
          />
          <path
            d="M149.246 3.76001V7.18401H153.262V3.76001H154.67V12.064H153.262V8.38401H149.246V12.064H147.838V3.76001H149.246Z"
            fill="white"
          />
          <path
            d="M142.909 12.224C141.522 12.224 140.461 11.8453 139.725 11.088C139 10.32 138.637 9.25867 138.637 7.90401C138.637 6.99734 138.808 6.22401 139.149 5.58401C139.49 4.94401 139.96 4.45334 140.557 4.11201C141.154 3.77067 141.826 3.60001 142.573 3.60001C143.842 3.60001 144.776 4.02134 145.373 4.86401C145.97 5.69601 146.162 6.83734 145.949 8.28801H140.093C140.21 10.0693 141.192 10.96 143.037 10.96C144.05 10.96 144.984 10.672 145.837 10.096V11.36C145.453 11.6267 145.005 11.84 144.493 12C143.981 12.1493 143.453 12.224 142.909 12.224ZM142.541 4.84801C141.933 4.84801 141.41 5.03467 140.973 5.40801C140.536 5.78134 140.258 6.34667 140.141 7.10401H144.605C144.637 6.38934 144.472 5.83467 144.109 5.44001C143.746 5.04534 143.224 4.84801 142.541 4.84801Z"
            fill="white"
          />
          <path
            d="M130.109 14.432H128.845V10.864H129.629C129.97 10.5227 130.21 10.0427 130.349 9.42401C130.498 8.80534 130.589 8.03201 130.621 7.10401C130.653 6.16534 130.669 5.05068 130.669 3.76001H136.669V10.864H137.917V14.432H136.685L136.509 12.064H130.253L130.109 14.432ZM135.261 4.96001H131.981C131.97 6.47468 131.917 7.70134 131.821 8.64001C131.735 9.56801 131.517 10.3093 131.165 10.864H135.261V4.96001Z"
            fill="white"
          />
          <path
            d="M120.891 2.656C120.049 2.656 119.419 2.448 119.003 2.032C118.587 1.60534 118.379 1.088 118.379 0.480003H119.787C119.787 0.885337 119.883 1.17867 120.075 1.36C120.278 1.54134 120.55 1.632 120.891 1.632C121.233 1.632 121.499 1.54134 121.691 1.36C121.883 1.17867 121.979 0.885337 121.979 0.480003H123.387C123.387 1.088 123.179 1.60534 122.763 2.032C122.358 2.448 121.734 2.656 120.891 2.656ZM118.715 3.76V10.112L122.987 3.76H124.411V12.064H123.003V5.728L118.747 12.064H117.307V3.76H118.715Z"
            fill="white"
          />
          <path
            d="M107.653 3.76001V6.56001H109.093C110.149 6.56001 110.975 6.77334 111.573 7.20001C112.17 7.61601 112.469 8.29868 112.469 9.24801C112.469 9.90934 112.319 10.448 112.021 10.864C111.722 11.2693 111.311 11.5733 110.789 11.776C110.266 11.968 109.669 12.064 108.997 12.064H106.245V3.76001H107.653ZM115.077 3.76001V12.064H113.669V3.76001H115.077ZM108.997 10.864C109.594 10.864 110.085 10.7467 110.469 10.512C110.853 10.2667 111.045 9.87201 111.045 9.32801C111.045 8.77334 110.874 8.37334 110.533 8.12801C110.191 7.88268 109.711 7.76001 109.093 7.76001H107.653V10.864H108.997Z"
            fill="white"
          />
          <path
            d="M96.968 14.432H95.704V10.864H96.488C96.8293 10.5227 97.0693 10.0427 97.208 9.42401C97.3573 8.80534 97.448 8.03201 97.48 7.10401C97.512 6.16534 97.528 5.05068 97.528 3.76001H103.528V10.864H104.776V14.432H103.544L103.368 12.064H97.112L96.968 14.432ZM102.12 4.96001H98.84C98.8293 6.47468 98.776 7.70134 98.68 8.64001C98.5947 9.56801 98.376 10.3093 98.024 10.864H102.12V4.96001Z"
            fill="white"
          />
          <path
            d="M83.2881 12.064L86.4881 7.87201L83.4001 3.76001H85.0161L87.6081 7.32801H88.5041V3.76001H89.9121V7.32801H90.8241L93.4641 3.76001H95.0161L91.9281 7.82401L95.1281 12.064H93.4161L90.7601 8.52801H89.9121V12.064H88.5041V8.52801H87.6401L84.9521 12.064H83.2881Z"
            fill="white"
          />
          <path
            d="M78.4982 4.84801C77.6129 4.84801 76.7169 5.12001 75.8102 5.66401V4.40001C76.2049 4.15467 76.6582 3.96267 77.1702 3.82401C77.6929 3.67467 78.1996 3.60001 78.6902 3.60001C79.7356 3.60001 80.5302 3.81867 81.0742 4.25601C81.6182 4.69334 81.8902 5.36001 81.8902 6.25601V10.72C81.8902 10.9013 81.8956 11.136 81.9062 11.424C81.9276 11.7013 81.9489 11.9147 81.9702 12.064H80.6902C80.6582 11.9147 80.6262 11.7067 80.5942 11.44C80.5729 11.1627 80.5622 10.9227 80.5622 10.72L80.5462 10.48C80.4182 10.736 80.2422 11.0027 80.0182 11.28C79.7942 11.5467 79.4956 11.7707 79.1222 11.952C78.7596 12.1333 78.3062 12.224 77.7622 12.224C77.0156 12.224 76.4129 12.0107 75.9542 11.584C75.4956 11.1573 75.2662 10.5547 75.2662 9.77601C75.2662 8.86934 75.5862 8.20267 76.2262 7.77601C76.8662 7.34934 77.7676 7.13601 78.9302 7.13601H80.4822V6.44801C80.4822 5.87201 80.3329 5.46134 80.0342 5.21601C79.7356 4.97067 79.2236 4.84801 78.4982 4.84801ZM80.4822 8.86401V8.25601H79.0742C78.2316 8.25601 77.6182 8.37867 77.2342 8.62401C76.8609 8.86934 76.6742 9.22667 76.6742 9.69601C76.6742 10.0693 76.7862 10.3733 77.0102 10.608C77.2449 10.8427 77.5969 10.96 78.0662 10.96C78.5036 10.96 78.8769 10.8747 79.1862 10.704C79.4956 10.5227 79.7462 10.3093 79.9382 10.064C80.1302 9.80801 80.2689 9.56801 80.3542 9.34401C80.4396 9.12001 80.4822 8.96001 80.4822 8.86401Z"
            fill="white"
          />
          <path
            d="M74.3569 12.064H72.6449L69.7169 8.52801H68.9809V12.064H67.5729V3.76001H68.9809V7.32801H69.7809L72.6929 3.76001H74.2929L70.8849 7.85601L74.3569 12.064Z"
            fill="white"
          />
          <path
            d="M54.9169 9.34401V8.22401H56.2289V6.86401H54.9169V5.74401H56.2289V0.59201H58.9329C60.1275 0.59201 61.0555 0.858677 61.7169 1.39201C62.3889 1.91468 62.7249 2.69868 62.7249 3.74401C62.7249 4.83201 62.3622 5.62668 61.6369 6.12801C60.9222 6.61868 59.9782 6.86401 58.8049 6.86401H57.7329V8.22401H61.0769V9.34401H57.7329V12.064H56.2289V9.34401H54.9169ZM58.8049 5.74401C59.5835 5.74401 60.1755 5.58401 60.5809 5.26401C60.9969 4.93334 61.2049 4.42668 61.2049 3.74401C61.2049 3.11468 61.0235 2.65068 60.6609 2.35201C60.3089 2.04268 59.7329 1.88801 58.9329 1.88801H57.7329V5.74401H58.8049Z"
            fill="white"
          />
          <path
            d="M44.7311 12.224C43.4511 12.224 42.4325 11.952 41.6751 11.408V9.84001C42.1231 10.2027 42.5925 10.4747 43.0831 10.656C43.5738 10.8267 44.1231 10.912 44.7311 10.912C45.5205 10.912 46.1285 10.672 46.5551 10.192C46.9925 9.71201 47.2111 9.08268 47.2111 8.30401C47.2111 7.47201 46.9978 6.86401 46.5711 6.48001C46.1445 6.09601 45.6058 5.90401 44.9551 5.90401C44.4858 5.90401 44.1071 5.98401 43.8191 6.14401C43.5311 6.29334 43.3125 6.45334 43.1631 6.62401H41.9951V0.59201H48.2031V1.96801H43.3071V5.24801C43.5205 5.08801 43.7818 4.94934 44.0911 4.83201C44.4005 4.70401 44.7685 4.64001 45.1951 4.64001C45.8565 4.64001 46.4538 4.77868 46.9871 5.05601C47.5205 5.32268 47.9418 5.72801 48.2511 6.27201C48.5711 6.80534 48.7311 7.47201 48.7311 8.27201C48.7311 9.06134 48.5658 9.75468 48.2351 10.352C47.9151 10.9493 47.4565 11.4133 46.8591 11.744C46.2618 12.064 45.5525 12.224 44.7311 12.224Z"
            fill="white"
          />
          <path
            d="M40.1262 12.064H32.8142V10.544C33.9556 9.62667 34.8889 8.84267 35.6142 8.19201C36.3502 7.54134 36.9209 6.97601 37.3262 6.49601C37.7422 6.00534 38.0302 5.55201 38.1902 5.13601C38.3609 4.72001 38.4462 4.29867 38.4462 3.87201C38.4462 3.21067 38.2489 2.69334 37.8542 2.32001C37.4596 1.94667 36.9156 1.76001 36.2222 1.76001C35.1129 1.76001 34.0782 2.28801 33.1182 3.34401V1.72801C34.0036 0.864007 35.0542 0.432007 36.2702 0.432007C37.4222 0.432007 38.3289 0.730674 38.9902 1.32801C39.6622 1.91467 39.9982 2.71467 39.9982 3.72801C39.9982 4.25067 39.9129 4.75201 39.7422 5.23201C39.5822 5.70134 39.2942 6.19734 38.8782 6.72001C38.4729 7.23201 37.9129 7.80801 37.1982 8.44801C36.4836 9.08801 35.5769 9.83467 34.4782 10.688H40.1262V12.064Z"
            fill="white"
          />
          <path
            d="M27.6654 12.224C26.94 12.224 26.2894 12.016 25.7134 11.6C25.1374 11.184 24.684 10.544 24.3534 9.68001C24.0334 8.80534 23.8734 7.68534 23.8734 6.32001C23.8734 4.94401 24.0334 3.82401 24.3534 2.96001C24.684 2.09601 25.1374 1.46134 25.7134 1.05601C26.2894 0.650672 26.94 0.448006 27.6654 0.448006C28.3907 0.448006 29.036 0.650672 29.6014 1.05601C30.1667 1.46134 30.6094 2.09601 30.9294 2.96001C31.2494 3.81334 31.4094 4.92267 31.4094 6.288C31.4094 7.64267 31.2494 8.76267 30.9294 9.64801C30.6094 10.5227 30.1667 11.1733 29.6014 11.6C29.036 12.016 28.3907 12.224 27.6654 12.224ZM27.6494 10.96C28.1294 10.96 28.5347 10.816 28.8654 10.528C29.2067 10.2293 29.4627 9.74401 29.6334 9.07201C29.8147 8.38934 29.9054 7.47734 29.9054 6.33601C29.9054 5.19467 29.82 4.28801 29.6494 3.61601C29.4787 2.93334 29.2227 2.44801 28.8814 2.16001C28.5507 1.86134 28.1454 1.71201 27.6654 1.71201C27.1854 1.71201 26.7747 1.86134 26.4334 2.16001C26.092 2.44801 25.8307 2.93334 25.6494 3.61601C25.468 4.28801 25.3774 5.19467 25.3774 6.33601C25.3774 7.47734 25.4627 8.38934 25.6334 9.07201C25.8147 9.74401 26.076 10.2293 26.4174 10.528C26.7587 10.816 27.1694 10.96 27.6494 10.96Z"
            fill="white"
          />
          <path
            d="M22.5325 12.064H15.2205V10.544C16.3618 9.62667 17.2952 8.84267 18.0205 8.19201C18.7565 7.54134 19.3272 6.97601 19.7325 6.49601C20.1485 6.00534 20.4365 5.55201 20.5965 5.13601C20.7672 4.72001 20.8525 4.29867 20.8525 3.87201C20.8525 3.21067 20.6552 2.69334 20.2605 2.32001C19.8658 1.94667 19.3218 1.76001 18.6285 1.76001C17.5192 1.76001 16.4845 2.28801 15.5245 3.34401V1.72801C16.4098 0.864007 17.4605 0.432007 18.6765 0.432007C19.8285 0.432007 20.7352 0.730674 21.3965 1.32801C22.0685 1.91467 22.4045 2.71467 22.4045 3.72801C22.4045 4.25067 22.3192 4.75201 22.1485 5.23201C21.9885 5.70134 21.7005 6.19734 21.2845 6.72001C20.8792 7.23201 20.3192 7.80801 19.6045 8.44801C18.8898 9.08801 17.9832 9.83467 16.8845 10.688H22.5325V12.064Z"
            fill="white"
          />
          <path
            d="M2.39688 12.064H0.764877V0.59201H2.26888V10.016L8.25288 0.59201H9.88488V12.064H8.34888V2.68801L2.39688 12.064Z"
            fill="white"
          />
        </svg>