<svg
          width="220"
          height="50"
          viewBox="0 0 220 50"
          fill="none"
          xmlns="http://www.w3.org/2000/svg"
        >
          <path
            d="M207.663 41.632V39.424H209.367V38.008H207.663V35.8H209.367V28H213.975C215.751 28 217.183 28.408 218.271 29.224C219.359 30.024 219.903 31.304 219.903 33.064C219.903 34.248 219.647 35.208 219.135 35.944C218.639 36.664 217.935 37.192 217.023 37.528C216.127 37.848 215.079 38.008 213.879 38.008H212.775V39.424H217.479V41.632H212.775V45.184H209.367V41.632H207.663ZM213.927 35.8C215.623 35.8 216.471 34.904 216.471 33.112C216.471 32.216 216.271 31.584 215.871 31.216C215.487 30.848 214.855 30.664 213.975 30.664H212.775V35.8H213.927Z"
            fill="white"
          />
          <path
            d="M192.925 45.424C191.773 45.424 190.741 45.128 189.829 44.536C188.933 43.928 188.229 42.976 187.717 41.68C187.205 40.368 186.949 38.672 186.949 36.592C186.949 34.496 187.205 32.808 187.717 31.528C188.229 30.232 188.933 29.288 189.829 28.696C190.741 28.088 191.773 27.784 192.925 27.784C194.093 27.784 195.125 28.08 196.021 28.672C196.917 29.264 197.613 30.2 198.109 31.48C198.621 32.76 198.877 34.44 198.877 36.52C198.877 38.6 198.621 40.296 198.109 41.608C197.613 42.92 196.917 43.888 196.021 44.512C195.125 45.12 194.093 45.424 192.925 45.424ZM192.901 42.736C193.477 42.736 193.949 42.552 194.317 42.184C194.701 41.8 194.981 41.168 195.157 40.288C195.349 39.392 195.445 38.168 195.445 36.616C195.445 35.064 195.349 33.84 195.157 32.944C194.981 32.048 194.709 31.408 194.341 31.024C193.973 30.64 193.501 30.448 192.925 30.448C192.365 30.448 191.893 30.64 191.509 31.024C191.125 31.408 190.837 32.048 190.645 32.944C190.469 33.84 190.381 35.064 190.381 36.616C190.381 38.168 190.469 39.392 190.645 40.288C190.837 41.168 191.117 41.8 191.485 42.184C191.869 42.552 192.341 42.736 192.901 42.736Z"
            fill="white"
          />
          <path
            d="M179.401 45.424C178.249 45.424 177.217 45.128 176.305 44.536C175.409 43.928 174.705 42.976 174.193 41.68C173.681 40.368 173.425 38.672 173.425 36.592C173.425 34.496 173.681 32.808 174.193 31.528C174.705 30.232 175.409 29.288 176.305 28.696C177.217 28.088 178.249 27.784 179.401 27.784C180.569 27.784 181.601 28.08 182.497 28.672C183.393 29.264 184.089 30.2 184.585 31.48C185.097 32.76 185.353 34.44 185.353 36.52C185.353 38.6 185.097 40.296 184.585 41.608C184.089 42.92 183.393 43.888 182.497 44.512C181.601 45.12 180.569 45.424 179.401 45.424ZM179.377 42.736C179.953 42.736 180.425 42.552 180.793 42.184C181.177 41.8 181.457 41.168 181.633 40.288C181.825 39.392 181.921 38.168 181.921 36.616C181.921 35.064 181.825 33.84 181.633 32.944C181.457 32.048 181.185 31.408 180.817 31.024C180.449 30.64 179.977 30.448 179.401 30.448C178.841 30.448 178.369 30.64 177.985 31.024C177.601 31.408 177.313 32.048 177.121 32.944C176.945 33.84 176.857 35.064 176.857 36.616C176.857 38.168 176.945 39.392 177.121 40.288C177.313 41.168 177.593 41.8 177.961 42.184C178.345 42.552 178.817 42.736 179.377 42.736Z"
            fill="white"
          />
          <path
            d="M165.878 45.424C164.726 45.424 163.694 45.128 162.782 44.536C161.886 43.928 161.182 42.976 160.67 41.68C160.158 40.368 159.902 38.672 159.902 36.592C159.902 34.496 160.158 32.808 160.67 31.528C161.182 30.232 161.886 29.288 162.782 28.696C163.694 28.088 164.726 27.784 165.878 27.784C167.046 27.784 168.078 28.08 168.974 28.672C169.87 29.264 170.566 30.2 171.062 31.48C171.574 32.76 171.83 34.44 171.83 36.52C171.83 38.6 171.574 40.296 171.062 41.608C170.566 42.92 169.87 43.888 168.974 44.512C168.078 45.12 167.046 45.424 165.878 45.424ZM165.854 42.736C166.43 42.736 166.902 42.552 167.27 42.184C167.654 41.8 167.934 41.168 168.11 40.288C168.302 39.392 168.398 38.168 168.398 36.616C168.398 35.064 168.302 33.84 168.11 32.944C167.934 32.048 167.662 31.408 167.294 31.024C166.926 30.64 166.454 30.448 165.878 30.448C165.318 30.448 164.846 30.64 164.462 31.024C164.078 31.408 163.79 32.048 163.598 32.944C163.422 33.84 163.334 35.064 163.334 36.616C163.334 38.168 163.422 39.392 163.598 40.288C163.79 41.168 164.07 41.8 164.438 42.184C164.822 42.552 165.294 42.736 165.854 42.736Z"
            fill="white"
          />
          <path
            d="M144.995 45.424C143.843 45.424 142.811 45.128 141.899 44.536C141.003 43.928 140.299 42.976 139.787 41.68C139.275 40.368 139.019 38.672 139.019 36.592C139.019 34.496 139.275 32.808 139.787 31.528C140.299 30.232 141.003 29.288 141.899 28.696C142.811 28.088 143.843 27.784 144.995 27.784C146.163 27.784 147.195 28.08 148.091 28.672C148.987 29.264 149.683 30.2 150.179 31.48C150.691 32.76 150.947 34.44 150.947 36.52C150.947 38.6 150.691 40.296 150.179 41.608C149.683 42.92 148.987 43.888 148.091 44.512C147.195 45.12 146.163 45.424 144.995 45.424ZM144.971 42.736C145.547 42.736 146.019 42.552 146.387 42.184C146.771 41.8 147.051 41.168 147.227 40.288C147.419 39.392 147.515 38.168 147.515 36.616C147.515 35.064 147.419 33.84 147.227 32.944C147.051 32.048 146.779 31.408 146.411 31.024C146.043 30.64 145.571 30.448 144.995 30.448C144.435 30.448 143.963 30.64 143.579 31.024C143.195 31.408 142.907 32.048 142.715 32.944C142.539 33.84 142.451 35.064 142.451 36.616C142.451 38.168 142.539 39.392 142.715 40.288C142.907 41.168 143.187 41.8 143.555 42.184C143.939 42.552 144.411 42.736 144.971 42.736Z"
            fill="white"
          />
          <path
            d="M131.471 45.424C130.319 45.424 129.287 45.128 128.375 44.536C127.479 43.928 126.775 42.976 126.263 41.68C125.751 40.368 125.495 38.672 125.495 36.592C125.495 34.496 125.751 32.808 126.263 31.528C126.775 30.232 127.479 29.288 128.375 28.696C129.287 28.088 130.319 27.784 131.471 27.784C132.639 27.784 133.671 28.08 134.567 28.672C135.463 29.264 136.159 30.2 136.655 31.48C137.167 32.76 137.423 34.44 137.423 36.52C137.423 38.6 137.167 40.296 136.655 41.608C136.159 42.92 135.463 43.888 134.567 44.512C133.671 45.12 132.639 45.424 131.471 45.424ZM131.447 42.736C132.023 42.736 132.495 42.552 132.863 42.184C133.247 41.8 133.527 41.168 133.703 40.288C133.895 39.392 133.991 38.168 133.991 36.616C133.991 35.064 133.895 33.84 133.703 32.944C133.527 32.048 133.255 31.408 132.887 31.024C132.519 30.64 132.047 30.448 131.471 30.448C130.911 30.448 130.439 30.64 130.055 31.024C129.671 31.408 129.383 32.048 129.191 32.944C129.015 33.84 128.927 35.064 128.927 36.616C128.927 38.168 129.015 39.392 129.191 40.288C129.383 41.168 129.663 41.8 130.031 42.184C130.415 42.552 130.887 42.736 131.447 42.736Z"
            fill="white"
          />
          <path
            d="M116.892 45.424C115.996 45.424 115.164 45.336 114.396 45.16C113.628 44.968 112.908 44.64 112.236 44.176V41.224C113.068 41.8 113.836 42.2 114.54 42.424C115.244 42.648 115.956 42.76 116.676 42.76C117.78 42.76 118.62 42.448 119.196 41.824C119.788 41.2 120.084 40.424 120.084 39.496C120.084 38.584 119.852 37.856 119.388 37.312C118.924 36.768 118.22 36.496 117.276 36.496C116.732 36.496 116.276 36.592 115.908 36.784C115.54 36.976 115.268 37.184 115.092 37.408H112.596V28H122.724V30.784H115.524V34.672C115.796 34.464 116.148 34.28 116.58 34.12C117.012 33.944 117.564 33.856 118.236 33.856C119.868 33.856 121.156 34.344 122.1 35.32C123.044 36.296 123.516 37.64 123.516 39.352C123.516 40.552 123.236 41.608 122.676 42.52C122.116 43.432 121.34 44.144 120.348 44.656C119.356 45.168 118.204 45.424 116.892 45.424Z"
            fill="white"
          />
          <path
            d="M98.5648 32.752V36.496H100.653C102.285 36.496 103.565 36.856 104.493 37.576C105.421 38.296 105.885 39.36 105.885 40.768C105.885 41.728 105.653 42.536 105.189 43.192C104.741 43.848 104.117 44.344 103.317 44.68C102.533 45.016 101.629 45.184 100.605 45.184H95.2288V32.752H98.5648ZM100.221 42.688C100.877 42.688 101.405 42.544 101.805 42.256C102.221 41.968 102.429 41.504 102.429 40.864C102.429 40.208 102.245 39.736 101.877 39.448C101.509 39.16 100.973 39.016 100.269 39.016H98.5648V42.688H100.221Z"
            fill="white"
          />
          <path
            d="M82.6907 32.752H93.3707V35.344H89.6507V45.184H86.3387V35.344H82.6907V32.752Z"
            fill="white"
          />
          <path
            d="M75.2252 35.128C73.8172 35.128 72.3932 35.488 70.9532 36.208V33.568C71.5772 33.232 72.3212 32.976 73.1852 32.8C74.0652 32.608 74.9452 32.512 75.8252 32.512C77.4572 32.512 78.7292 32.856 79.6412 33.544C80.5692 34.216 81.0332 35.304 81.0332 36.808V43.192C81.0332 43.448 81.0412 43.792 81.0572 44.224C81.0892 44.64 81.1212 44.96 81.1532 45.184H78.0332C77.9852 44.944 77.9372 44.632 77.8892 44.248C77.8572 43.864 77.8332 43.528 77.8172 43.24C77.6412 43.576 77.3932 43.92 77.0732 44.272C76.7692 44.608 76.3692 44.888 75.8732 45.112C75.3932 45.32 74.7932 45.424 74.0732 45.424C73.3692 45.424 72.7212 45.296 72.1292 45.04C71.5372 44.768 71.0572 44.368 70.6892 43.84C70.3372 43.296 70.1612 42.624 70.1612 41.824C70.1612 40.496 70.6812 39.472 71.7212 38.752C72.7612 38.032 74.2412 37.672 76.1612 37.672H77.6972V37.12C77.6972 36.368 77.4972 35.848 77.0972 35.56C76.7132 35.272 76.0892 35.128 75.2252 35.128ZM77.6972 40.36V39.616H76.2812C75.2892 39.616 74.5612 39.776 74.0972 40.096C73.6492 40.416 73.4252 40.864 73.4252 41.44C73.4252 41.952 73.5692 42.352 73.8572 42.64C74.1612 42.912 74.5692 43.048 75.0812 43.048C75.6092 43.048 76.0412 42.936 76.3772 42.712C76.7292 42.488 77.0012 42.216 77.1932 41.896C77.3852 41.576 77.5132 41.272 77.5772 40.984C77.6572 40.696 77.6972 40.488 77.6972 40.36Z"
            fill="white"
          />
          <path
            d="M55.8778 32.752H58.9738L59.1418 34.792C59.5418 34.088 60.0778 33.536 60.7498 33.136C61.4378 32.72 62.2618 32.512 63.2218 32.512C64.2138 32.512 65.1258 32.744 65.9578 33.208C66.7898 33.672 67.4538 34.384 67.9498 35.344C68.4458 36.288 68.6938 37.488 68.6938 38.944C68.6938 40.4 68.4378 41.608 67.9258 42.568C67.4298 43.528 66.7658 44.248 65.9338 44.728C65.1018 45.192 64.1898 45.424 63.1978 45.424C62.2698 45.424 61.4698 45.224 60.7978 44.824C60.1418 44.408 59.6058 43.864 59.1898 43.192V49.432H55.8778V32.752ZM65.2858 38.944C65.2858 37.68 65.0058 36.728 64.4458 36.088C63.8858 35.448 63.1658 35.128 62.2858 35.128C61.3898 35.128 60.6458 35.448 60.0538 36.088C59.4618 36.712 59.1658 37.664 59.1658 38.944C59.1658 40.24 59.4618 41.2 60.0538 41.824C60.6458 42.448 61.3818 42.76 62.2618 42.76C63.1418 42.76 63.8618 42.448 64.4218 41.824C64.9978 41.184 65.2858 40.224 65.2858 38.944Z"
            fill="white"
          />
          <path
            d="M45.4013 45.184V32.752H53.8253V35.344H48.7133V45.184H45.4013Z"
            fill="white"
          />
          <path
            d="M34.3221 32.752V40.576L39.3141 32.752H42.5301V45.184H39.2181V37.384L34.2981 45.184H31.0341V32.752H34.3221Z"
            fill="white"
          />
          <path
            d="M16.6273 32.752V36.496H18.4993C20.1633 36.496 21.4513 36.856 22.3633 37.576C23.2913 38.296 23.7553 39.36 23.7553 40.768C23.7553 41.744 23.5233 42.56 23.0593 43.216C22.6113 43.872 21.9873 44.368 21.1873 44.704C20.3873 45.024 19.4753 45.184 18.4513 45.184H13.3153V32.752H16.6273ZM28.1473 32.752V45.184H24.8593V32.752H28.1473ZM18.0913 42.688C18.7473 42.688 19.2833 42.544 19.6993 42.256C20.1153 41.968 20.3233 41.504 20.3233 40.864C20.3233 40.208 20.1313 39.736 19.7473 39.448C19.3793 39.16 18.8433 39.016 18.1393 39.016H16.6273V42.688H18.0913Z"
            fill="white"
          />
          <path
            d="M5.52059 45.184H0.0965881V32.752H5.59259C7.25659 32.752 8.48059 33 9.26459 33.496C10.0646 33.992 10.4646 34.752 10.4646 35.776C10.4646 36.56 10.2246 37.176 9.74459 37.624C9.26459 38.072 8.56859 38.416 7.65659 38.656C8.76059 38.816 9.57659 39.128 10.1046 39.592C10.6326 40.056 10.8966 40.736 10.8966 41.632C10.8966 42.832 10.4166 43.728 9.45659 44.32C8.49659 44.896 7.18459 45.184 5.52059 45.184ZM5.35259 35.128H3.36059V37.72H5.20859C5.78459 37.72 6.24859 37.616 6.60059 37.408C6.96859 37.2 7.15259 36.872 7.15259 36.424C7.15259 35.928 6.99259 35.592 6.67259 35.416C6.36859 35.224 5.92859 35.128 5.35259 35.128ZM5.18459 39.928H3.36059V42.76H5.30459C5.96059 42.76 6.49659 42.672 6.91259 42.496C7.32859 42.32 7.53659 41.952 7.53659 41.392C7.53659 40.88 7.34459 40.512 6.96059 40.288C6.59259 40.048 6.00059 39.928 5.18459 39.928Z"
            fill="white"
          />
          <path
            d="M192.061 17.424C189.997 17.424 188.365 16.856 187.165 15.72C185.965 14.568 185.365 12.976 185.365 10.944C185.365 8.928 185.965 7.352 187.165 6.216C188.365 5.08 190.005 4.512 192.085 4.512C193.749 4.512 195.053 4.848 195.997 5.52V8.136C195.405 7.784 194.829 7.528 194.269 7.368C193.725 7.208 193.093 7.128 192.373 7.128C189.957 7.128 188.749 8.4 188.749 10.944C188.749 13.488 189.941 14.76 192.325 14.76C193.061 14.76 193.709 14.688 194.269 14.544C194.829 14.384 195.405 14.128 195.997 13.776V16.392C194.973 17.08 193.661 17.424 192.061 17.424Z"
            fill="white"
          />
          <path
            d="M175.264 4.752V9.528H179.872V4.752H183.208V17.184H179.872V12.144H175.264V17.184H171.952V4.752H175.264Z"
            fill="white"
          />
          <path
            d="M163.385 7.128C161.977 7.128 160.553 7.488 159.113 8.208V5.568C159.737 5.232 160.481 4.976 161.345 4.8C162.225 4.608 163.105 4.512 163.985 4.512C165.617 4.512 166.889 4.856 167.801 5.544C168.729 6.216 169.193 7.304 169.193 8.808V15.192C169.193 15.448 169.201 15.792 169.217 16.224C169.249 16.64 169.281 16.96 169.313 17.184H166.193C166.145 16.944 166.097 16.632 166.049 16.248C166.017 15.864 165.993 15.528 165.977 15.24C165.801 15.576 165.553 15.92 165.233 16.272C164.929 16.608 164.529 16.888 164.033 17.112C163.553 17.32 162.953 17.424 162.233 17.424C161.529 17.424 160.881 17.296 160.289 17.04C159.697 16.768 159.217 16.368 158.849 15.84C158.497 15.296 158.321 14.624 158.321 13.824C158.321 12.496 158.841 11.472 159.881 10.752C160.921 10.032 162.401 9.672 164.321 9.672H165.857V9.12C165.857 8.368 165.657 7.848 165.257 7.56C164.873 7.272 164.249 7.128 163.385 7.128ZM165.857 12.36V11.616H164.441C163.449 11.616 162.721 11.776 162.257 12.096C161.809 12.416 161.585 12.864 161.585 13.44C161.585 13.952 161.729 14.352 162.017 14.64C162.321 14.912 162.729 15.048 163.241 15.048C163.769 15.048 164.201 14.936 164.537 14.712C164.889 14.488 165.161 14.216 165.353 13.896C165.545 13.576 165.673 13.272 165.737 12.984C165.817 12.696 165.857 12.488 165.857 12.36Z"
            fill="white"
          />
          <path
            d="M156.025 4.752V17.184H139.561V4.752H142.873V14.544H146.137V4.752H149.449V14.544H152.689V4.752H156.025Z"
            fill="white"
          />
          <path
            d="M127.642 17.424C125.21 17.424 123.41 16.856 122.242 15.72C121.074 14.568 120.49 12.976 120.49 10.944C120.49 9.6 120.754 8.448 121.282 7.488C121.826 6.528 122.578 5.792 123.538 5.28C124.498 4.768 125.602 4.512 126.85 4.512C128.242 4.512 129.386 4.808 130.282 5.4C131.194 5.992 131.834 6.84 132.202 7.944C132.57 9.048 132.634 10.36 132.394 11.88H123.946C124.058 12.84 124.41 13.568 125.002 14.064C125.61 14.544 126.546 14.784 127.81 14.784C129.314 14.784 130.706 14.44 131.986 13.752V16.368C131.346 16.752 130.674 17.024 129.97 17.184C129.282 17.344 128.506 17.424 127.642 17.424ZM126.898 6.96C126.162 6.96 125.538 7.192 125.026 7.656C124.53 8.104 124.194 8.752 124.018 9.6H129.226C129.274 7.84 128.498 6.96 126.898 6.96Z"
            fill="white"
          />
          <path
            d="M108.976 4.752H119.656V7.344H115.936V17.184H112.624V7.344H108.976V4.752Z"
            fill="white"
          />
          <path
            d="M98.8807 4.752V12.576L103.873 4.752H107.089V17.184H103.777V9.384L98.8567 17.184H95.5927V4.752H98.8807Z"
            fill="white"
          />
          <path
            d="M87.1344 10.416C87.5504 10.416 87.9504 10.36 88.3344 10.248C88.7344 10.136 89.0864 9.968 89.3904 9.744V4.752H92.7024V17.184H89.3904V12.216C89.0064 12.504 88.5344 12.736 87.9744 12.912C87.4144 13.072 86.7824 13.152 86.0784 13.152C84.6544 13.152 83.5664 12.752 82.8144 11.952C82.0624 11.152 81.6864 9.96 81.6864 8.376V4.752H85.0224V8.208C85.0224 9.008 85.1904 9.576 85.5264 9.912C85.8784 10.248 86.4144 10.416 87.1344 10.416Z"
            fill="white"
          />
          <path
            d="M70.5093 21.648C69.5973 21.648 68.8133 21.504 68.1573 21.216V18.312C68.8293 18.76 69.5893 18.984 70.4373 18.984C71.3493 18.984 72.0373 18.616 72.5013 17.88L67.5333 4.752H71.0613L74.1813 13.728L77.2293 4.752H80.2773L75.9093 17.04C75.4933 18.192 75.0453 19.104 74.5653 19.776C74.0853 20.448 73.5173 20.928 72.8613 21.216C72.2053 21.504 71.4213 21.648 70.5093 21.648Z"
            fill="white"
          />
          <path
            d="M54.0401 14.208C54.5841 14.32 55.0241 14.232 55.3601 13.944C55.6961 13.64 55.9441 13.104 56.1041 12.336C56.1841 11.888 56.2481 11.36 56.2961 10.752C56.3601 10.128 56.4001 9.336 56.4161 8.376C56.4481 7.416 56.4641 6.208 56.4641 4.752H65.9441V17.184H62.6321V7.344H59.4401C59.4081 8.768 59.3521 9.952 59.2721 10.896C59.2081 11.84 59.1041 12.656 58.9601 13.344C58.6241 14.896 58.0641 15.984 57.2801 16.608C56.4961 17.216 55.4161 17.408 54.0401 17.184V14.208Z"
            fill="white"
          />
          <path
            d="M46.7862 17.424C45.6022 17.424 44.5302 17.176 43.5702 16.68C42.6262 16.184 41.8742 15.456 41.3142 14.496C40.7702 13.52 40.4982 12.336 40.4982 10.944C40.4982 9.552 40.7702 8.384 41.3142 7.44C41.8742 6.48 42.6262 5.752 43.5702 5.256C44.5302 4.76 45.6022 4.512 46.7862 4.512C47.9862 4.512 49.0662 4.76 50.0262 5.256C50.9862 5.752 51.7382 6.48 52.2822 7.44C52.8422 8.384 53.1222 9.552 53.1222 10.944C53.1222 12.336 52.8422 13.52 52.2822 14.496C51.7382 15.456 50.9862 16.184 50.0262 16.68C49.0662 17.176 47.9862 17.424 46.7862 17.424ZM46.7862 14.76C47.6342 14.76 48.3302 14.448 48.8742 13.824C49.4342 13.2 49.7142 12.24 49.7142 10.944C49.7142 9.664 49.4342 8.712 48.8742 8.088C48.3302 7.464 47.6342 7.152 46.7862 7.152C45.9702 7.152 45.2822 7.464 44.7222 8.088C44.1622 8.712 43.8822 9.664 43.8822 10.944C43.8822 12.24 44.1622 13.2 44.7222 13.824C45.2822 14.448 45.9702 14.76 46.7862 14.76Z"
            fill="white"
          />
          <path
            d="M24.0442 0H38.0602V17.184H34.6282V2.856H27.4762V17.184H24.0442V0Z"
            fill="white"
          />
        </svg>