<svg
          width="245"
          height="51"
          viewBox="0 0 245 51"
          fill="none"
          xmlns="http://www.w3.org/2000/svg"
        >
          <path
            d="M158.206 37.634L162.499 30.884H166.468L160.285 39.929L167.251 50H163.039L158.098 42.386L153.265 50H149.161L156.019 39.929L149.755 30.884H153.859L158.206 37.634Z"
            fill="url(#paint0_linear_126_10)"
          />
          <path
            d="M133.344 50H129.645L137.772 30.884H141.066L149.139 50H145.359L143.604 45.653H135.045L133.344 50ZM136.098 42.845H142.578L139.365 34.637L136.098 42.845Z"
            fill="url(#paint1_linear_126_10)"
          />
          <path
            d="M112.982 50V30.884H116.357V38.363C116.717 38.363 117.068 38.381 117.41 38.417C117.752 38.435 118.094 38.462 118.436 38.498L124.916 30.884H128.615L121.784 39.281C123.71 40.037 125.249 41.279 126.401 43.007C127.571 44.735 128.408 47.066 128.912 50H125.213C124.925 48.47 124.547 47.147 124.079 46.031C123.629 44.915 123.053 43.997 122.351 43.277C121.649 42.557 120.803 42.035 119.813 41.711C118.823 41.387 117.671 41.243 116.357 41.279V50H112.982Z"
            fill="url(#paint2_linear_126_10)"
          />
          <path
            d="M97.2307 30.884L102.226 41.792L107.059 30.884H110.758L103.873 45.842C103.567 46.508 103.234 47.12 102.874 47.678C102.514 48.236 102.091 48.722 101.605 49.136C101.119 49.532 100.561 49.847 99.9307 50.081C99.3187 50.315 98.6077 50.432 97.7977 50.432C97.2217 50.432 96.7267 50.387 96.3127 50.297C95.9167 50.225 95.5747 50.126 95.2867 50C95.0167 49.874 94.7827 49.739 94.5847 49.595C94.3867 49.451 94.2157 49.316 94.0717 49.19L96.0427 46.706C96.2407 46.886 96.5017 47.075 96.8257 47.273C97.1677 47.471 97.5727 47.57 98.0407 47.57C98.5447 47.57 98.9857 47.417 99.3637 47.111C99.7417 46.787 100.102 46.319 100.444 45.707L93.4777 30.884H97.2307Z"
            fill="url(#paint3_linear_126_10)"
          />
          <path
            d="M78.8894 30.884H85.1534C86.1614 30.884 87.0974 30.992 87.9614 31.208C88.8254 31.406 89.5634 31.73 90.1754 32.18C90.8054 32.63 91.2914 33.206 91.6334 33.908C91.9934 34.592 92.1734 35.429 92.1734 36.419C92.1734 37.409 91.9844 38.264 91.6064 38.984C91.2464 39.686 90.7424 40.262 90.0944 40.712C89.4644 41.162 88.7174 41.495 87.8534 41.711C86.9894 41.909 86.0624 42.008 85.0724 42.008H82.2644V50H78.8894V30.884ZM82.2644 39.281H84.8294C85.4054 39.281 85.9364 39.227 86.4224 39.119C86.9084 39.011 87.3224 38.84 87.6644 38.606C88.0244 38.372 88.2944 38.075 88.4744 37.715C88.6724 37.355 88.7714 36.923 88.7714 36.419C88.7714 35.897 88.6724 35.465 88.4744 35.123C88.2764 34.763 88.0064 34.475 87.6644 34.259C87.3224 34.043 86.9084 33.89 86.4224 33.8C85.9544 33.71 85.4414 33.665 84.8834 33.665H82.2644V39.281Z"
            fill="url(#paint4_linear_126_10)"
          />
          <path
            d="M235.554 7.634L239.847 0.884003H243.816L237.633 9.929L244.599 20H240.387L235.446 12.386L230.613 20H226.509L233.367 9.929L227.103 0.884003H231.207L235.554 7.634Z"
            fill="url(#paint5_linear_126_10)"
          />
          <path
            d="M210.819 15.248L220.215 0.884003H224.157V20H220.782V5.636H220.728L211.305 20H207.39V0.884003H210.765V15.248H210.819Z"
            fill="url(#paint6_linear_126_10)"
          />
          <path
            d="M190.055 17.084V0.884003H193.43V17.084H199.532V0.884003H202.907V20H180.416V0.884003H183.791V17.084H190.055Z"
            fill="url(#paint7_linear_126_10)"
          />
          <path
            d="M162.466 20H158.767L166.894 0.884003H170.188L178.261 20H174.481L172.726 15.653H164.167L162.466 20ZM165.22 12.845H171.7L168.487 4.637L165.22 12.845Z"
            fill="url(#paint8_linear_126_10)"
          />
          <path
            d="M143.476 0.884003H150.199C150.937 0.884003 151.684 0.965002 152.44 1.127C153.196 1.271 153.871 1.532 154.465 1.91C155.077 2.27 155.572 2.765 155.95 3.395C156.346 4.025 156.544 4.826 156.544 5.798C156.544 6.824 156.247 7.697 155.653 8.417C155.059 9.137 154.276 9.632 153.304 9.902V9.956C153.88 10.046 154.42 10.217 154.924 10.469C155.428 10.703 155.86 11.018 156.22 11.414C156.598 11.792 156.886 12.251 157.084 12.791C157.3 13.313 157.408 13.907 157.408 14.573C157.408 15.491 157.219 16.292 156.841 16.976C156.463 17.66 155.941 18.227 155.275 18.677C154.627 19.127 153.862 19.46 152.98 19.676C152.116 19.892 151.189 20 150.199 20H143.476V0.884003ZM146.77 8.849H149.902C150.352 8.849 150.775 8.804 151.171 8.714C151.585 8.606 151.945 8.444 152.251 8.228C152.557 8.012 152.8 7.742 152.98 7.418C153.16 7.076 153.25 6.662 153.25 6.176C153.25 5.276 152.908 4.628 152.224 4.232C151.54 3.836 150.649 3.638 149.551 3.638H146.77V8.849ZM146.77 17.219H149.821C150.343 17.219 150.856 17.174 151.36 17.084C151.864 16.976 152.305 16.814 152.683 16.598C153.079 16.364 153.394 16.058 153.628 15.68C153.88 15.302 154.006 14.834 154.006 14.276C154.006 13.25 153.646 12.521 152.926 12.089C152.206 11.639 151.225 11.414 149.983 11.414H146.77V17.219Z"
            fill="url(#paint9_linear_126_10)"
          />
          <path
            d="M119.113 0.884003H125.836C126.574 0.884003 127.321 0.965002 128.077 1.127C128.833 1.271 129.508 1.532 130.102 1.91C130.714 2.27 131.209 2.765 131.587 3.395C131.983 4.025 132.181 4.826 132.181 5.798C132.181 6.824 131.884 7.697 131.29 8.417C130.696 9.137 129.913 9.632 128.941 9.902V9.956C129.517 10.046 130.057 10.217 130.561 10.469C131.065 10.703 131.497 11.018 131.857 11.414C132.235 11.792 132.523 12.251 132.721 12.791C132.937 13.313 133.045 13.907 133.045 14.573C133.045 15.491 132.856 16.292 132.478 16.976C132.1 17.66 131.578 18.227 130.912 18.677C130.264 19.127 129.499 19.46 128.617 19.676C127.753 19.892 126.826 20 125.836 20H119.113V0.884003ZM122.407 8.849H125.539C125.989 8.849 126.412 8.804 126.808 8.714C127.222 8.606 127.582 8.444 127.888 8.228C128.194 8.012 128.437 7.742 128.617 7.418C128.797 7.076 128.887 6.662 128.887 6.176C128.887 5.276 128.545 4.628 127.861 4.232C127.177 3.836 126.286 3.638 125.188 3.638H122.407V8.849ZM122.407 17.219H125.458C125.98 17.219 126.493 17.174 126.997 17.084C127.501 16.976 127.942 16.814 128.32 16.598C128.716 16.364 129.031 16.058 129.265 15.68C129.517 15.302 129.643 14.834 129.643 14.276C129.643 13.25 129.283 12.521 128.563 12.089C127.843 11.639 126.862 11.414 125.62 11.414H122.407V17.219Z"
            fill="url(#paint10_linear_126_10)"
          />
          <path
            d="M94.4124 20H90.7134L98.8404 0.884003H102.134L110.207 20H106.427L104.672 15.653H96.1134L94.4124 20ZM97.1664 12.845H103.646L100.433 4.637L97.1664 12.845Z"
            fill="url(#paint11_linear_126_10)"
          />
          <path
            d="M90.4156 17.165C89.6596 18.137 88.6696 18.938 87.4456 19.568C86.2396 20.198 84.7996 20.513 83.1256 20.513C81.6676 20.513 80.3176 20.27 79.0756 19.784C77.8336 19.28 76.7626 18.587 75.8626 17.705C74.9626 16.805 74.2516 15.734 73.7296 14.492C73.2256 13.25 72.9736 11.891 72.9736 10.415C72.9736 8.921 73.2346 7.562 73.7566 6.338C74.2786 5.096 74.9896 4.034 75.8896 3.152C76.8076 2.27 77.8876 1.586 79.1296 1.1C80.3716 0.614002 81.7126 0.371002 83.1526 0.371002C84.5386 0.371002 85.8616 0.632003 87.1216 1.154C88.3996 1.658 89.4076 2.369 90.1456 3.287L87.7156 5.528C87.3016 4.916 86.6986 4.412 85.9066 4.016C85.1146 3.62 84.2326 3.422 83.2606 3.422C82.2526 3.422 81.3436 3.611 80.5336 3.989C79.7236 4.349 79.0306 4.844 78.4546 5.474C77.8786 6.104 77.4286 6.842 77.1046 7.688C76.7986 8.534 76.6456 9.443 76.6456 10.415C76.6456 11.405 76.7986 12.332 77.1046 13.196C77.4286 14.042 77.8696 14.78 78.4276 15.41C79.0036 16.04 79.6966 16.535 80.5066 16.895C81.3166 17.255 82.2256 17.435 83.2336 17.435C84.2236 17.435 85.1326 17.237 85.9606 16.841C86.7886 16.427 87.4636 15.842 87.9856 15.086L90.4156 17.165Z"
            fill="url(#paint12_linear_126_10)"
          />
          <path
            d="M61.0501 17.084H70.5541V20H57.7561V0.884003H70.1491V3.8H61.0501V8.768H69.5821V11.549H61.0501V17.084Z"
            fill="url(#paint13_linear_126_10)"
          />
          <path
            d="M37.257 20V23.753H34.314V17.084H37.203L43.305 0.884003H46.599L52.647 17.084H55.59V23.753H52.647V20H37.257ZM40.659 17.084H49.083L44.871 4.664L40.659 17.084Z"
            fill="url(#paint14_linear_126_10)"
          />
          <path
            d="M20.8845 0.884003L25.8795 11.792L30.7125 0.884003H34.4115L27.5265 15.842C27.2205 16.508 26.8875 17.12 26.5275 17.678C26.1675 18.236 25.7445 18.722 25.2585 19.136C24.7725 19.532 24.2145 19.847 23.5845 20.081C22.9725 20.315 22.2615 20.432 21.4515 20.432C20.8755 20.432 20.3805 20.387 19.9665 20.297C19.5705 20.225 19.2285 20.126 18.9405 20C18.6705 19.874 18.4365 19.739 18.2385 19.595C18.0405 19.451 17.8695 19.316 17.7255 19.19L19.6965 16.706C19.8945 16.886 20.1555 17.075 20.4795 17.273C20.8215 17.471 21.2265 17.57 21.6945 17.57C22.1985 17.57 22.6395 17.417 23.0175 17.111C23.3955 16.787 23.7555 16.319 24.0975 15.707L17.1315 0.884003H20.8845Z"
            fill="url(#paint15_linear_126_10)"
          />
          <path
            d="M11.2343 0.884003H14.6093V20H11.2613V12.197H7.23829C6.12229 12.197 5.15029 12.044 4.32229 11.738C3.51229 11.414 2.83729 10.955 2.29729 10.361C1.77529 9.767 1.38829 9.047 1.13629 8.201C0.884293 7.355 0.758293 6.401 0.758293 5.339V0.884003H4.13329V4.367C4.13329 5.177 4.17829 5.888 4.26829 6.5C4.37629 7.112 4.56529 7.625 4.83529 8.039C5.10529 8.453 5.46529 8.768 5.91529 8.984C6.38329 9.182 6.98629 9.281 7.72429 9.281H11.2343V0.884003Z"
            fill="url(#paint16_linear_126_10)"
          />
          <defs>
            <linearGradient
              id="paint0_linear_126_10"
              x1="0.629124"
              y1="24.0001"
              x2="251.523"
              y2="24.9954"
              gradientUnits="userSpaceOnUse"
            >
              <stop stop-color="#E3B759" />
              <stop offset="0.536458" stop-color="#FEF2D9" />
              <stop offset="0.937507" stop-color="#E3B759" />
            </linearGradient>
            <linearGradient
              id="paint1_linear_126_10"
              x1="0.629137"
              y1="24"
              x2="251.523"
              y2="24.9953"
              gradientUnits="userSpaceOnUse"
            >
              <stop stop-color="#E3B759" />
              <stop offset="0.536458" stop-color="#FEF2D9" />
              <stop offset="0.937507" stop-color="#E3B759" />
            </linearGradient>
            <linearGradient
              id="paint2_linear_126_10"
              x1="0.629144"
              y1="24"
              x2="251.523"
              y2="24.9953"
              gradientUnits="userSpaceOnUse"
            >
              <stop stop-color="#E3B759" />
              <stop offset="0.536458" stop-color="#FEF2D9" />
              <stop offset="0.937507" stop-color="#E3B759" />
            </linearGradient>
            <linearGradient
              id="paint3_linear_126_10"
              x1="0.629132"
              y1="24"
              x2="251.523"
              y2="24.9953"
              gradientUnits="userSpaceOnUse"
            >
              <stop stop-color="#E3B759" />
              <stop offset="0.536458" stop-color="#FEF2D9" />
              <stop offset="0.937507" stop-color="#E3B759" />
            </linearGradient>
            <linearGradient
              id="paint4_linear_126_10"
              x1="0.629139"
              y1="24"
              x2="251.523"
              y2="24.9953"
              gradientUnits="userSpaceOnUse"
            >
              <stop stop-color="#E3B759" />
              <stop offset="0.536458" stop-color="#FEF2D9" />
              <stop offset="0.937507" stop-color="#E3B759" />
            </linearGradient>
            <linearGradient
              id="paint5_linear_126_10"
              x1="0.629131"
              y1="24.0001"
              x2="251.523"
              y2="24.9954"
              gradientUnits="userSpaceOnUse"
            >
              <stop stop-color="#E3B759" />
              <stop offset="0.536458" stop-color="#FEF2D9" />
              <stop offset="0.937507" stop-color="#E3B759" />
            </linearGradient>
            <linearGradient
              id="paint6_linear_126_10"
              x1="0.629126"
              y1="24.0001"
              x2="251.523"
              y2="24.9954"
              gradientUnits="userSpaceOnUse"
            >
              <stop stop-color="#E3B759" />
              <stop offset="0.536458" stop-color="#FEF2D9" />
              <stop offset="0.937507" stop-color="#E3B759" />
            </linearGradient>
            <linearGradient
              id="paint7_linear_126_10"
              x1="0.629133"
              y1="24"
              x2="251.523"
              y2="24.9953"
              gradientUnits="userSpaceOnUse"
            >
              <stop stop-color="#E3B759" />
              <stop offset="0.536458" stop-color="#FEF2D9" />
              <stop offset="0.937507" stop-color="#E3B759" />
            </linearGradient>
            <linearGradient
              id="paint8_linear_126_10"
              x1="0.629133"
              y1="24"
              x2="251.523"
              y2="24.9953"
              gradientUnits="userSpaceOnUse"
            >
              <stop stop-color="#E3B759" />
              <stop offset="0.536458" stop-color="#FEF2D9" />
              <stop offset="0.937507" stop-color="#E3B759" />
            </linearGradient>
            <linearGradient
              id="paint9_linear_126_10"
              x1="0.629133"
              y1="24"
              x2="251.523"
              y2="24.9953"
              gradientUnits="userSpaceOnUse"
            >
              <stop stop-color="#E3B759" />
              <stop offset="0.536458" stop-color="#FEF2D9" />
              <stop offset="0.937507" stop-color="#E3B759" />
            </linearGradient>
            <linearGradient
              id="paint10_linear_126_10"
              x1="0.629138"
              y1="24.0001"
              x2="251.523"
              y2="24.9954"
              gradientUnits="userSpaceOnUse"
            >
              <stop stop-color="#E3B759" />
              <stop offset="0.536458" stop-color="#FEF2D9" />
              <stop offset="0.937507" stop-color="#E3B759" />
            </linearGradient>
            <linearGradient
              id="paint11_linear_126_10"
              x1="0.629141"
              y1="24"
              x2="251.523"
              y2="24.9954"
              gradientUnits="userSpaceOnUse"
            >
              <stop stop-color="#E3B759" />
              <stop offset="0.536458" stop-color="#FEF2D9" />
              <stop offset="0.937507" stop-color="#E3B759" />
            </linearGradient>
            <linearGradient
              id="paint12_linear_126_10"
              x1="0.629142"
              y1="24.0001"
              x2="251.523"
              y2="24.9954"
              gradientUnits="userSpaceOnUse"
            >
              <stop stop-color="#E3B759" />
              <stop offset="0.536458" stop-color="#FEF2D9" />
              <stop offset="0.937507" stop-color="#E3B759" />
            </linearGradient>
            <linearGradient
              id="paint13_linear_126_10"
              x1="0.629137"
              y1="24"
              x2="251.523"
              y2="24.9953"
              gradientUnits="userSpaceOnUse"
            >
              <stop stop-color="#E3B759" />
              <stop offset="0.536458" stop-color="#FEF2D9" />
              <stop offset="0.937507" stop-color="#E3B759" />
            </linearGradient>
            <linearGradient
              id="paint14_linear_126_10"
              x1="0.62914"
              y1="24.0001"
              x2="251.523"
              y2="24.9954"
              gradientUnits="userSpaceOnUse"
            >
              <stop stop-color="#E3B759" />
              <stop offset="0.536458" stop-color="#FEF2D9" />
              <stop offset="0.937507" stop-color="#E3B759" />
            </linearGradient>
            <linearGradient
              id="paint15_linear_126_10"
              x1="0.629139"
              y1="24"
              x2="251.523"
              y2="24.9953"
              gradientUnits="userSpaceOnUse"
            >
              <stop stop-color="#E3B759" />
              <stop offset="0.536458" stop-color="#FEF2D9" />
              <stop offset="0.937507" stop-color="#E3B759" />
            </linearGradient>
            <linearGradient
              id="paint16_linear_126_10"
              x1="0.629139"
              y1="24.0001"
              x2="251.523"
              y2="24.9954"
              gradientUnits="userSpaceOnUse"
            >
              <stop stop-color="#E3B759" />
              <stop offset="0.536458" stop-color="#FEF2D9" />
              <stop offset="0.937507" stop-color="#E3B759" />
            </linearGradient>
          </defs>
        </svg>